<svg width="1440" height="649" viewBox="0 0 1440 649" fill="none" xmlns="http://www.w3.org/2000/svg">
<path fill-rule="evenodd" clip-rule="evenodd" d="M1440 0L1173.38 446.104L1209.39 143.434L1440 0Z" fill="#D3425A"/>
<path fill-rule="evenodd" clip-rule="evenodd" d="M266.621 446.104L752.293 648.416L719.952 537.431L628.477 374.904L266.621 446.104Z" fill="#C41230"/>
<path fill-rule="evenodd" clip-rule="evenodd" d="M0 392.022L266.621 446.104L0 0V392.022Z" fill="#E27285"/>
<path fill-rule="evenodd" clip-rule="evenodd" d="M0 0L266.621 446.104L230.52 143.434L0 0Z" fill="#D3425A"/>
<path fill-rule="evenodd" clip-rule="evenodd" d="M628.478 374.904L230.52 143.434L266.621 446.104L628.478 374.904Z" fill="#AA102A"/>
<path fill-rule="evenodd" clip-rule="evenodd" d="M1173.38 446.104L752.295 648.416L719.955 537.431L811.523 374.904L1173.38 446.104Z" fill="#AA102A"/>
<path fill-rule="evenodd" clip-rule="evenodd" d="M1439.62 392.022L1173 446.104L1439.62 0V392.022Z" fill="#E27285"/>
<path fill-rule="evenodd" clip-rule="evenodd" d="M811.521 374.904L1209.38 143.434L1173.38 446.104L811.521 374.904Z" fill="#C41230"/>
</svg>
