<svg width="509" height="436" viewBox="0 0 509 436" fill="none" xmlns="http://www.w3.org/2000/svg">
<g clip-path="url(#clip0)">
<path d="M18.833 2.95459V2.96486M18.833 2.96486V434.196H490.167V2.96486H18.833Z" stroke="#A7A9AC" stroke-width="3" stroke-linecap="round" stroke-linejoin="round"/>
<path d="M460.344 31.9398V29.9398H458.344H351.316H350.218L349.629 30.8661L257.271 176.015L257.27 176.015L254.462 180.427L251.653 176.015L159.314 30.958L158.724 30.032H157.626H50.5798H48.5798V32.032V402.696V404.696H50.5798H147.32H149.32V402.696V179.466L155.358 188.423L251.87 331.58L253.529 334.041L255.187 331.58L352.346 187.353L352.347 187.351L358.384 178.373V402.696V404.696H360.384H458.344H460.344V402.696V31.9398ZM150.692 190.2V405.804H47.3027V28.8316H159.519L252.774 175.433L254.461 178.085L256.149 175.433L349.461 28.8316H461.697V405.804H357.107V189.112V182.558L353.448 187.996L253.683 336.244H253.563L154.351 189.082L150.692 183.656V190.2Z" stroke="#3D3E41" stroke-width="4"/>
<mask id="path-3-inside-1" fill="white">
<path d="M99.8399 414.479C99.1291 414.469 98.4487 414.199 97.9348 413.723C95.8583 411.713 95.1343 411.012 113.423 389.566C93.8579 409.74 91.0384 411.99 88.9047 412.027C88.1397 412.025 87.404 411.742 86.8472 411.234C84.4278 408.892 84.3325 408.8 113.156 375.716C117.938 370.184 123.33 364.043 128.397 358.142C122.815 363.767 116.967 369.742 111.747 375.053C79.3602 407.97 77.7219 409.224 75.5501 409.242C75.1946 409.246 74.8421 409.18 74.5143 409.047C74.1866 408.913 73.8907 408.716 73.645 408.468C71.0922 405.997 70.5397 405.48 112.318 359.507L111.785 360.06C72.9211 400.077 64.9578 407.656 61.7001 407.712C60.9256 407.694 60.1855 407.398 59.6236 406.882C57.7185 405.038 57.3184 404.65 77.0741 383.462C56.9565 403.489 48.9932 409.998 45.7927 410.054C45.3635 410.067 44.9361 409.995 44.5365 409.842C44.1369 409.69 43.7735 409.461 43.4685 409.168C40.8395 406.624 40.5537 406.347 87.4568 357.386C57.6995 387.353 48.917 395.116 45.8308 395.153C45.0482 395.096 44.3031 394.806 43.6971 394.323C40.0393 390.783 44.5544 384.623 100.85 327.235C107.365 320.596 114.357 313.478 121.005 306.637C111.48 316.152 101.326 326.498 92.4291 335.589C48.7456 379.958 46.5357 381.691 44.2496 381.691C43.5404 381.657 42.8661 381.383 42.3445 380.917C39.7917 378.464 39.525 378.206 83.9515 331.679C50.3839 365.39 43.9448 370.866 41.1824 370.903C40.4167 370.888 39.6839 370.599 39.1249 370.092C36.3244 367.4 35.9815 367.049 89.8191 310.472C98.9064 300.92 109.194 290.187 118.738 279.952L107.308 291.736C63.4909 336.954 53.2035 346.709 49.5076 346.783C49.1048 346.793 48.7041 346.723 48.3305 346.577C47.9568 346.431 47.6182 346.212 47.3358 345.934C44.8401 343.519 45.2593 340.605 71.1493 312.888C52.2319 331.938 49.2599 334.187 47.3739 334.206C46.6702 334.149 46.0031 333.878 45.4688 333.431C42.5921 330.647 42.0778 330.149 91.7623 279.952C110.146 261.401 133.426 237.907 145.448 224.224C131.198 237.428 106.165 263.171 87.9522 281.907C50.4982 320.246 48.5932 321.592 46.4595 321.629C45.7465 321.612 45.0663 321.335 44.5544 320.855C41.9063 318.291 41.8492 318.236 87.4568 270.677C99.7446 257.86 115.042 241.909 127.787 228.262C118.51 237.483 108.203 247.994 98.7921 257.528C49.7362 307.319 44.0972 312.298 41.3348 312.335C40.9604 312.341 40.5885 312.274 40.2415 312.138C39.8945 312.001 39.5795 311.799 39.3154 311.542C37.4103 309.606 37.4103 307.061 52.27 290.906C50.0982 292.603 48.8408 293.23 48.0407 293.23C47.2837 293.217 46.5582 292.934 46.0022 292.437C44.0972 290.593 43.3161 289.818 67.4916 264.776C58.1567 273.037 52.2509 277.113 49.5648 277.168C49.082 277.203 48.5973 277.133 48.1458 276.964C47.6943 276.795 47.2875 276.531 46.9548 276.19C45.0497 274.346 45.5641 271.23 56.1373 259.022C48.5932 266.195 46.6881 267.376 45.3545 267.394C44.6105 267.348 43.902 267.07 43.3351 266.601C41.5824 264.905 40.4394 263.817 54.9942 247.884C51.7746 250.558 49.9839 251.572 48.8599 251.572C48.0343 251.539 47.2548 251.195 46.6881 250.613C44.5925 248.584 43.8495 247.847 65.8532 225.588C55.642 235.141 50.3839 239.087 48.1169 239.106C47.7015 239.113 47.2887 239.04 46.9027 238.892C46.5167 238.743 46.1652 238.521 45.8689 238.239C44.2496 236.69 43.3542 235.823 54.0988 224.076C46.8976 230.586 42.8398 233.297 40.7633 233.297C40.3247 233.327 39.8848 233.262 39.4759 233.105C39.067 232.949 38.6996 232.706 38.401 232.393C36.4959 230.549 36.4959 228.189 48.4407 214.708C47.6458 215.217 46.739 215.539 45.7927 215.649C45.3653 215.671 44.938 215.603 44.5402 215.45C44.1423 215.297 43.7833 215.063 43.4875 214.764C40.5537 211.924 40.0965 211.481 112.642 137.312C124.358 125.343 136.684 112.711 147.429 101.591C131.826 117.082 113.461 135.818 98.7921 150.81C52.4033 198.388 50.022 200.195 47.6978 200.232C46.9809 200.215 46.2984 199.931 45.7927 199.439C43.4494 197.171 44.5925 193.243 64.0624 172.017C50.7269 185.332 49.1266 186.088 47.6216 186.106C46.9152 186.076 46.2417 185.809 45.7165 185.35C43.3161 183.027 42.4588 182.197 79.8175 143.379C55.4896 167.352 50.4411 171.483 48.3074 171.501C47.5942 171.468 46.9174 171.187 46.4023 170.708C44.04 168.421 43.7543 168.145 74.6737 136.279C57.7185 153.023 50.022 159.422 46.6881 159.496C46.2486 159.51 45.8107 159.437 45.4013 159.281C44.9919 159.126 44.6195 158.892 44.3067 158.592C42.4016 156.748 41.43 155.808 57.3184 138.695C51.9842 143.434 49.4695 145.02 48.0978 145.038C47.3273 145.019 46.59 144.731 46.0213 144.227C43.297 141.59 43.0303 141.313 90.6193 90.9878C96.3345 84.9023 102.659 78.2635 108.889 71.6248C63.167 118.926 46.9738 134.767 42.2111 134.84C41.3629 134.844 40.5454 134.534 39.925 133.974C37.3151 131.429 38.801 127.888 61.5477 103.343C52.5938 111.937 49.0694 114.408 47.2215 114.408C46.4275 114.402 45.6652 114.106 45.0878 113.578C42.8779 111.568 42.0397 110.738 63.8338 86.4882C54.5942 95.4689 50.8793 98.1613 48.8408 98.1982C48.0233 98.2075 47.2354 97.9024 46.65 97.3499C44.2115 94.9895 43.8495 94.6575 78.1791 55.8577L68.9966 65.2257C45.1831 89.4019 45.0116 89.4019 43.2589 89.4387C42.5475 89.4144 41.8698 89.1389 41.3538 88.6642C39.0677 86.4882 38.9153 86.3222 60.5952 59.2509L65.5293 53.0547L60.7666 57.96C43.6209 75.6265 43.4113 75.6265 41.7158 75.6633C41.3597 75.6722 41.0057 75.6078 40.6773 75.4742C40.3489 75.3407 40.0535 75.1412 39.8107 74.8888C37.9056 73.0447 37.9056 73.0447 53.7178 52.0589C52.3462 53.2391 51.8127 53.3313 51.0507 53.3498C50.3369 53.3361 49.6555 53.059 49.1456 52.5752C47.7359 51.229 47.7359 51.229 51.8318 40.8283C45.3736 47.4302 45.2021 47.4302 43.8876 47.4486C43.1826 47.4122 42.511 47.1457 41.9825 46.6926C40.6299 45.3648 40.668 44.8485 44.2496 33.2122H43.9067V30.6489L45.5069 29.1552L43.9067 30.6489L42.173 28.8048C42.4016 28.602 43.2399 27.7721 44.0781 26.8501C47.9835 22.9959 47.9835 22.9959 49.1456 22.9775C49.4992 22.974 49.85 23.0391 50.1772 23.1689C50.5044 23.2988 50.8014 23.4908 51.0507 23.7335C52.289 24.9322 52.289 24.9322 49.6981 33.2491C49.3933 34.2633 49.0123 35.462 48.6313 36.6791L49.4504 35.8493C56.5754 28.5651 56.6707 28.4729 58.0805 28.4729C58.7909 28.4852 59.4707 28.755 59.9856 29.229C61.3953 30.5752 61.3763 30.8518 57.3184 41.1418L59.4331 38.9289C70.6159 27.1451 71.8161 26.1862 73.6069 26.1493C73.981 26.1452 74.3522 26.2132 74.6989 26.3493C75.0456 26.4854 75.3609 26.687 75.6263 26.9423C77.5314 28.7864 77.7409 28.9708 63.5862 47.7437C79.5889 31.3681 81.9702 29.5425 83.9324 29.5056C84.6456 29.5383 85.3224 29.82 85.8375 30.2985C88.0855 32.4561 88.4094 32.7881 66.4628 60.2282C101.097 24.8769 106.832 19.8056 109.556 19.7687C110.313 19.7821 111.038 20.0643 111.594 20.5617C114.052 22.9406 114.052 22.9406 83.9705 56.9089C79.5508 61.9064 74.5785 67.5124 69.8729 72.8787C76.9598 65.6868 84.5992 57.7571 90.8288 51.2106C115.595 25.633 116.605 24.9322 118.567 24.8953C119.279 24.9179 119.957 25.1937 120.472 25.6699C123.044 28.1409 123.368 28.4729 87.6474 67.66C80.8462 75.0363 72.9592 83.7774 66.1009 91.4857C75.5882 82.1177 86.6948 70.7765 95.4582 61.7404C126.378 29.9666 127.845 28.9708 129.75 28.9339C130.463 28.9512 131.143 29.2277 131.655 29.7084C134.57 32.5299 133.769 34.5031 90.5812 79.9048C77.8552 93.2929 62.0049 109.964 52.4795 120.936C66.3485 108.027 89.8954 83.6483 107.117 65.8527C145.219 26.4259 149.029 22.9959 151.601 22.959C151.975 22.9426 152.348 23.0031 152.697 23.1366C153.045 23.2701 153.359 23.4736 153.62 23.7335C156.783 26.7947 155.106 30.2432 94.3723 94.4362L85.0374 104.321C93.9722 95.3214 103.288 85.8796 111.594 77.3784C155.716 32.6221 160.402 28.3807 162.898 28.3622C163.614 28.3682 164.298 28.6464 164.803 29.1368C166.956 31.2206 167.794 32.032 143.085 57.7387C156.726 43.9449 160.955 40.5886 163.146 40.5517C163.94 40.5812 164.7 40.8742 165.299 41.3816C167.737 43.742 167.204 46.6372 139.408 76.2166C172.271 43.5392 174.329 42.0639 176.329 42.0454C177.039 42.0779 177.713 42.3523 178.234 42.82C180.406 44.9222 181.187 45.6783 153.716 74.3909C167.566 61.0581 173.109 56.7613 175.357 56.7429C175.749 56.7385 176.138 56.8096 176.501 56.9521C176.864 57.0946 177.194 57.3056 177.472 57.5727C180.082 60.0807 180.082 60.0807 135.408 105.427C117.881 123.223 93.7627 147.712 75.6072 167.057C81.7416 160.824 88.3332 154.148 94.8676 147.417C153.011 88.0188 174.538 66.9039 179.51 66.8485C179.918 66.8415 180.324 66.9128 180.703 67.0585C181.082 67.2041 181.428 67.421 181.72 67.6968C184.121 70.002 184.749 70.629 144.8 111.789C174.576 81.2141 184.997 71.5326 188.502 71.4772C189.322 71.4699 190.113 71.7669 190.712 72.3071C192.789 74.3356 193.437 74.9626 169.623 99.0465C183.797 85.0498 190.274 79.7941 192.979 79.7388C193.401 79.7274 193.821 79.7983 194.213 79.9472C194.606 80.0961 194.964 80.32 195.265 80.6055C197.171 82.4496 198.333 83.593 178.52 104.579C190.236 93.1085 194.046 90.2501 195.913 90.2133C196.672 90.2334 197.398 90.522 197.952 91.0247C199.419 92.4262 199.304 94.7129 195.532 100.042C199.952 96.4463 202.752 94.8051 204.353 94.7682C204.798 94.7462 205.242 94.8171 205.657 94.9762C206.071 95.1353 206.445 95.3788 206.753 95.6902C208.449 97.3315 209.154 98.0138 194.675 113.099C199.685 109.023 202.943 107.068 204.696 107.05C205.602 107.037 206.477 107.368 207.134 107.972C209.954 110.701 210.068 110.793 151.887 168.421C117.176 202.832 66.8439 252.697 54.0417 269.312C71.9304 255.979 126.702 199.144 160.993 163.571C208.62 114.353 212.792 110.461 215.383 110.461C216.097 110.475 216.778 110.752 217.288 111.236C219.365 113.246 219.041 115.957 198.104 138.418C215.155 121.932 223.099 115.385 225.766 115.348C226.576 115.346 227.356 115.65 227.938 116.197C231.062 119.202 231.881 119.995 153.335 197.097C153.896 196.708 154.553 196.466 155.24 196.396V196.396C155.991 196.411 156.71 196.693 157.259 197.189C159.164 199.033 160.231 200.066 143.066 219.079C149.791 213.03 153.182 210.817 154.954 210.799C155.368 210.786 155.781 210.854 156.168 211C156.554 211.146 156.906 211.366 157.202 211.647C159.298 213.676 158.612 216.755 147.353 229.443C150.115 227.23 151.658 226.4 152.649 226.4C153.413 226.421 154.144 226.709 154.706 227.211C157.431 229.83 157.659 230.051 113.385 275.822C97.649 292.087 76.6931 313.736 63.5671 328.397C74.8833 317.332 90.2383 301.362 103.002 288.306C142.514 247.552 150.02 240.36 153.144 240.36C153.527 240.351 153.908 240.417 154.265 240.553C154.622 240.689 154.947 240.893 155.221 241.153C158.269 244.103 159.031 244.841 93.2673 314.031C89.0952 318.402 84.8278 322.883 80.6176 327.327C88.8094 319.084 97.2299 310.564 104.812 302.875C152.915 254.135 155.525 252.125 157.907 252.088C158.619 252.109 159.298 252.385 159.812 252.863C161.965 254.947 162.727 255.684 133.96 286.259C146.705 273.867 151.296 270.326 153.277 270.289C154.05 270.325 154.788 270.61 155.373 271.101C158.574 274.217 157.411 276.762 104.298 330.868C89.4953 345.953 71.2446 364.56 59.5093 377.468C73.2449 364.283 93.8008 343.353 110.318 326.479C151.353 284.636 153.43 283.032 155.64 283.014C156.353 283.029 157.034 283.306 157.545 283.788C160.536 286.665 161.355 287.476 94.6771 356.962C86.4662 365.519 77.8362 374.536 70.2158 382.558C84.8278 368.137 102.602 349.678 115.785 336.124C148.324 302.487 148.667 302.487 150.591 302.45C151.306 302.458 151.99 302.736 152.496 303.225C154.401 305.069 155.373 306.01 133.598 329.909C148.61 314.806 152.649 311.468 154.859 311.468C155.619 311.481 156.347 311.771 156.897 312.279C159.45 314.751 159.564 314.843 121.101 357.091L114.319 364.947C143.39 335.441 147.162 332.251 149.505 332.214C150.255 332.235 150.972 332.517 151.525 333.007C153.906 335.312 154.535 335.921 124.282 370.811C144.876 349.549 147.829 347.207 150.077 347.17C150.838 347.19 151.567 347.471 152.134 347.963C154.401 350.157 154.401 350.157 132.322 375.624L127.883 380.732C145.505 362.789 146.781 362.033 148.553 361.996C149.269 362.017 149.95 362.3 150.458 362.789C152.363 364.633 152.496 364.763 139.027 383.074C151.487 370.387 151.601 370.387 153.125 370.369C153.834 370.386 154.512 370.655 155.03 371.125C156.726 372.766 156.745 372.803 145.505 391.723C152.458 384.734 152.744 384.716 154.02 384.697C154.732 384.702 155.415 384.973 155.926 385.453C157.183 386.67 157.183 386.67 154.687 396.315C154.135 398.417 153.43 401.091 152.896 403.323V404.411L152.554 404.743L152.896 404.411L154.592 406.255C154.401 406.421 153.963 406.882 153.468 407.398C151.087 409.814 150.725 410.201 149.486 410.201C149.132 410.2 148.781 410.131 148.454 409.998C148.127 409.865 147.83 409.671 147.581 409.427C146.229 408.117 146.324 407.453 149.486 394.969V394.877L144.666 399.763C135.141 409.39 135.141 409.39 133.712 409.39C133.357 409.403 133.003 409.343 132.675 409.212C132.346 409.082 132.05 408.885 131.807 408.634C130.169 407.048 130.169 407.048 140.342 389.898L141.809 387.426L141.447 387.814C122.796 406.789 122.396 406.79 120.701 406.808C119.985 406.8 119.302 406.522 118.795 406.033C116.89 404.189 116.89 404.189 131.217 384.697L131.921 383.738L125.368 390.432C102.793 413.557 101.612 414.406 99.6875 414.406L99.8399 414.479ZM151.468 405.923L151.182 406.218L151.468 405.923ZM156.688 112.14L134.455 134.269C105.936 162.723 65.7389 202.666 49.7362 221.107C64.7483 207.516 93.8579 177.218 118.319 151.677C134.112 135.357 146.686 122.337 156.707 112.14H156.688ZM111.994 172.294C100.564 183.82 88.7904 195.64 78.6744 205.967C88.9428 195.788 100.64 183.912 112.013 172.294H111.994ZM139.332 117.506L116.471 140.944C101.707 156.048 85.1517 172.976 71.9876 186.733C86.2757 172.497 104.031 154.074 119.805 137.736C127.025 130.23 133.522 123.518 139.351 117.506H139.332ZM181.13 109.337C168.709 121.526 150.877 139.967 134.322 156.785C125.368 166.006 117.29 174.23 110.013 181.662C134.436 157.56 164.46 127.685 181.149 109.337H181.13ZM191.627 151.972C187.131 156.398 182.368 161.193 177.434 166.079C182.406 161.193 187.188 156.453 191.646 151.972H191.627ZM171.395 141.811C167.089 146.034 162.555 150.552 157.888 155.236L171.395 141.811ZM124.492 77.028L109.08 92.7397C93.2483 108.857 75.0548 127.353 62.8051 140.465C76.4836 127.206 95.8773 106.902 111.632 90.4346C116.338 85.5108 120.605 81.0481 124.492 77.028ZM169.375 106.773C160.669 115.477 150.515 125.933 140.285 136.537C150.801 125.823 160.993 115.477 169.375 106.773ZM128.397 80.4396L115.5 93.8646L113.861 95.598C118.776 90.5083 123.692 85.3817 128.397 80.4396Z"/>
</mask>
<path d="M99.8399 414.479C99.1291 414.469 98.4487 414.199 97.9348 413.723C95.8583 411.713 95.1343 411.012 113.423 389.566C93.8579 409.74 91.0384 411.99 88.9047 412.027C88.1397 412.025 87.404 411.742 86.8472 411.234C84.4278 408.892 84.3325 408.8 113.156 375.716C117.938 370.184 123.33 364.043 128.397 358.142C122.815 363.767 116.967 369.742 111.747 375.053C79.3602 407.97 77.7219 409.224 75.5501 409.242C75.1946 409.246 74.8421 409.18 74.5143 409.047C74.1866 408.913 73.8907 408.716 73.645 408.468C71.0922 405.997 70.5397 405.48 112.318 359.507L111.785 360.06C72.9211 400.077 64.9578 407.656 61.7001 407.712C60.9256 407.694 60.1855 407.398 59.6236 406.882C57.7185 405.038 57.3184 404.65 77.0741 383.462C56.9565 403.489 48.9932 409.998 45.7927 410.054C45.3635 410.067 44.9361 409.995 44.5365 409.842C44.1369 409.69 43.7735 409.461 43.4685 409.168C40.8395 406.624 40.5537 406.347 87.4568 357.386C57.6995 387.353 48.917 395.116 45.8308 395.153C45.0482 395.096 44.3031 394.806 43.6971 394.323C40.0393 390.783 44.5544 384.623 100.85 327.235C107.365 320.596 114.357 313.478 121.005 306.637C111.48 316.152 101.326 326.498 92.4291 335.589C48.7456 379.958 46.5357 381.691 44.2496 381.691C43.5404 381.657 42.8661 381.383 42.3445 380.917C39.7917 378.464 39.525 378.206 83.9515 331.679C50.3839 365.39 43.9448 370.866 41.1824 370.903C40.4167 370.888 39.6839 370.599 39.1249 370.092C36.3244 367.4 35.9815 367.049 89.8191 310.472C98.9064 300.92 109.194 290.187 118.738 279.952L107.308 291.736C63.4909 336.954 53.2035 346.709 49.5076 346.783C49.1048 346.793 48.7041 346.723 48.3305 346.577C47.9568 346.431 47.6182 346.212 47.3358 345.934C44.8401 343.519 45.2593 340.605 71.1493 312.888C52.2319 331.938 49.2599 334.187 47.3739 334.206C46.6702 334.149 46.0031 333.878 45.4688 333.431C42.5921 330.647 42.0778 330.149 91.7623 279.952C110.146 261.401 133.426 237.907 145.448 224.224C131.198 237.428 106.165 263.171 87.9522 281.907C50.4982 320.246 48.5932 321.592 46.4595 321.629C45.7465 321.612 45.0663 321.335 44.5544 320.855C41.9063 318.291 41.8492 318.236 87.4568 270.677C99.7446 257.86 115.042 241.909 127.787 228.262C118.51 237.483 108.203 247.994 98.7921 257.528C49.7362 307.319 44.0972 312.298 41.3348 312.335C40.9604 312.341 40.5885 312.274 40.2415 312.138C39.8945 312.001 39.5795 311.799 39.3154 311.542C37.4103 309.606 37.4103 307.061 52.27 290.906C50.0982 292.603 48.8408 293.23 48.0407 293.23C47.2837 293.217 46.5582 292.934 46.0022 292.437C44.0972 290.593 43.3161 289.818 67.4916 264.776C58.1567 273.037 52.2509 277.113 49.5648 277.168C49.082 277.203 48.5973 277.133 48.1458 276.964C47.6943 276.795 47.2875 276.531 46.9548 276.19C45.0497 274.346 45.5641 271.23 56.1373 259.022C48.5932 266.195 46.6881 267.376 45.3545 267.394C44.6105 267.348 43.902 267.07 43.3351 266.601C41.5824 264.905 40.4394 263.817 54.9942 247.884C51.7746 250.558 49.9839 251.572 48.8599 251.572C48.0343 251.539 47.2548 251.195 46.6881 250.613C44.5925 248.584 43.8495 247.847 65.8532 225.588C55.642 235.141 50.3839 239.087 48.1169 239.106C47.7015 239.113 47.2887 239.04 46.9027 238.892C46.5167 238.743 46.1652 238.521 45.8689 238.239C44.2496 236.69 43.3542 235.823 54.0988 224.076C46.8976 230.586 42.8398 233.297 40.7633 233.297C40.3247 233.327 39.8848 233.262 39.4759 233.105C39.067 232.949 38.6996 232.706 38.401 232.393C36.4959 230.549 36.4959 228.189 48.4407 214.708C47.6458 215.217 46.739 215.539 45.7927 215.649C45.3653 215.671 44.938 215.603 44.5402 215.45C44.1423 215.297 43.7833 215.063 43.4875 214.764C40.5537 211.924 40.0965 211.481 112.642 137.312C124.358 125.343 136.684 112.711 147.429 101.591C131.826 117.082 113.461 135.818 98.7921 150.81C52.4033 198.388 50.022 200.195 47.6978 200.232C46.9809 200.215 46.2984 199.931 45.7927 199.439C43.4494 197.171 44.5925 193.243 64.0624 172.017C50.7269 185.332 49.1266 186.088 47.6216 186.106C46.9152 186.076 46.2417 185.809 45.7165 185.35C43.3161 183.027 42.4588 182.197 79.8175 143.379C55.4896 167.352 50.4411 171.483 48.3074 171.501C47.5942 171.468 46.9174 171.187 46.4023 170.708C44.04 168.421 43.7543 168.145 74.6737 136.279C57.7185 153.023 50.022 159.422 46.6881 159.496C46.2486 159.51 45.8107 159.437 45.4013 159.281C44.9919 159.126 44.6195 158.892 44.3067 158.592C42.4016 156.748 41.43 155.808 57.3184 138.695C51.9842 143.434 49.4695 145.02 48.0978 145.038C47.3273 145.019 46.59 144.731 46.0213 144.227C43.297 141.59 43.0303 141.313 90.6193 90.9878C96.3345 84.9023 102.659 78.2635 108.889 71.6248C63.167 118.926 46.9738 134.767 42.2111 134.84C41.3629 134.844 40.5454 134.534 39.925 133.974C37.3151 131.429 38.801 127.888 61.5477 103.343C52.5938 111.937 49.0694 114.408 47.2215 114.408C46.4275 114.402 45.6652 114.106 45.0878 113.578C42.8779 111.568 42.0397 110.738 63.8338 86.4882C54.5942 95.4689 50.8793 98.1613 48.8408 98.1982C48.0233 98.2075 47.2354 97.9024 46.65 97.3499C44.2115 94.9895 43.8495 94.6575 78.1791 55.8577L68.9966 65.2257C45.1831 89.4019 45.0116 89.4019 43.2589 89.4387C42.5475 89.4144 41.8698 89.1389 41.3538 88.6642C39.0677 86.4882 38.9153 86.3222 60.5952 59.2509L65.5293 53.0547L60.7666 57.96C43.6209 75.6265 43.4113 75.6265 41.7158 75.6633C41.3597 75.6722 41.0057 75.6078 40.6773 75.4742C40.3489 75.3407 40.0535 75.1412 39.8107 74.8888C37.9056 73.0447 37.9056 73.0447 53.7178 52.0589C52.3462 53.2391 51.8127 53.3313 51.0507 53.3498C50.3369 53.3361 49.6555 53.059 49.1456 52.5752C47.7359 51.229 47.7359 51.229 51.8318 40.8283C45.3736 47.4302 45.2021 47.4302 43.8876 47.4486C43.1826 47.4122 42.511 47.1457 41.9825 46.6926C40.6299 45.3648 40.668 44.8485 44.2496 33.2122H43.9067V30.6489L45.5069 29.1552L43.9067 30.6489L42.173 28.8048C42.4016 28.602 43.2399 27.7721 44.0781 26.8501C47.9835 22.9959 47.9835 22.9959 49.1456 22.9775C49.4992 22.974 49.85 23.0391 50.1772 23.1689C50.5044 23.2988 50.8014 23.4908 51.0507 23.7335C52.289 24.9322 52.289 24.9322 49.6981 33.2491C49.3933 34.2633 49.0123 35.462 48.6313 36.6791L49.4504 35.8493C56.5754 28.5651 56.6707 28.4729 58.0805 28.4729C58.7909 28.4852 59.4707 28.755 59.9856 29.229C61.3953 30.5752 61.3763 30.8518 57.3184 41.1418L59.4331 38.9289C70.6159 27.1451 71.8161 26.1862 73.6069 26.1493C73.981 26.1452 74.3522 26.2132 74.6989 26.3493C75.0456 26.4854 75.3609 26.687 75.6263 26.9423C77.5314 28.7864 77.7409 28.9708 63.5862 47.7437C79.5889 31.3681 81.9702 29.5425 83.9324 29.5056C84.6456 29.5383 85.3224 29.82 85.8375 30.2985C88.0855 32.4561 88.4094 32.7881 66.4628 60.2282C101.097 24.8769 106.832 19.8056 109.556 19.7687C110.313 19.7821 111.038 20.0643 111.594 20.5617C114.052 22.9406 114.052 22.9406 83.9705 56.9089C79.5508 61.9064 74.5785 67.5124 69.8729 72.8787C76.9598 65.6868 84.5992 57.7571 90.8288 51.2106C115.595 25.633 116.605 24.9322 118.567 24.8953C119.279 24.9179 119.957 25.1937 120.472 25.6699C123.044 28.1409 123.368 28.4729 87.6474 67.66C80.8462 75.0363 72.9592 83.7774 66.1009 91.4857C75.5882 82.1177 86.6948 70.7765 95.4582 61.7404C126.378 29.9666 127.845 28.9708 129.75 28.9339C130.463 28.9512 131.143 29.2277 131.655 29.7084C134.57 32.5299 133.769 34.5031 90.5812 79.9048C77.8552 93.2929 62.0049 109.964 52.4795 120.936C66.3485 108.027 89.8954 83.6483 107.117 65.8527C145.219 26.4259 149.029 22.9959 151.601 22.959C151.975 22.9426 152.348 23.0031 152.697 23.1366C153.045 23.2701 153.359 23.4736 153.62 23.7335C156.783 26.7947 155.106 30.2432 94.3723 94.4362L85.0374 104.321C93.9722 95.3214 103.288 85.8796 111.594 77.3784C155.716 32.6221 160.402 28.3807 162.898 28.3622C163.614 28.3682 164.298 28.6464 164.803 29.1368C166.956 31.2206 167.794 32.032 143.085 57.7387C156.726 43.9449 160.955 40.5886 163.146 40.5517C163.94 40.5812 164.7 40.8742 165.299 41.3816C167.737 43.742 167.204 46.6372 139.408 76.2166C172.271 43.5392 174.329 42.0639 176.329 42.0454C177.039 42.0779 177.713 42.3523 178.234 42.82C180.406 44.9222 181.187 45.6783 153.716 74.3909C167.566 61.0581 173.109 56.7613 175.357 56.7429C175.749 56.7385 176.138 56.8096 176.501 56.9521C176.864 57.0946 177.194 57.3056 177.472 57.5727C180.082 60.0807 180.082 60.0807 135.408 105.427C117.881 123.223 93.7627 147.712 75.6072 167.057C81.7416 160.824 88.3332 154.148 94.8676 147.417C153.011 88.0188 174.538 66.9039 179.51 66.8485C179.918 66.8415 180.324 66.9128 180.703 67.0585C181.082 67.2041 181.428 67.421 181.72 67.6968C184.121 70.002 184.749 70.629 144.8 111.789C174.576 81.2141 184.997 71.5326 188.502 71.4772C189.322 71.4699 190.113 71.7669 190.712 72.3071C192.789 74.3356 193.437 74.9626 169.623 99.0465C183.797 85.0498 190.274 79.7941 192.979 79.7388C193.401 79.7274 193.821 79.7983 194.213 79.9472C194.606 80.0961 194.964 80.32 195.265 80.6055C197.171 82.4496 198.333 83.593 178.52 104.579C190.236 93.1085 194.046 90.2501 195.913 90.2133C196.672 90.2334 197.398 90.522 197.952 91.0247C199.419 92.4262 199.304 94.7129 195.532 100.042C199.952 96.4463 202.752 94.8051 204.353 94.7682C204.798 94.7462 205.242 94.8171 205.657 94.9762C206.071 95.1353 206.445 95.3788 206.753 95.6902C208.449 97.3315 209.154 98.0138 194.675 113.099C199.685 109.023 202.943 107.068 204.696 107.05C205.602 107.037 206.477 107.368 207.134 107.972C209.954 110.701 210.068 110.793 151.887 168.421C117.176 202.832 66.8439 252.697 54.0417 269.312C71.9304 255.979 126.702 199.144 160.993 163.571C208.62 114.353 212.792 110.461 215.383 110.461C216.097 110.475 216.778 110.752 217.288 111.236C219.365 113.246 219.041 115.957 198.104 138.418C215.155 121.932 223.099 115.385 225.766 115.348C226.576 115.346 227.356 115.65 227.938 116.197C231.062 119.202 231.881 119.995 153.335 197.097C153.896 196.708 154.553 196.466 155.24 196.396V196.396C155.991 196.411 156.71 196.693 157.259 197.189C159.164 199.033 160.231 200.066 143.066 219.079C149.791 213.03 153.182 210.817 154.954 210.799C155.368 210.786 155.781 210.854 156.168 211C156.554 211.146 156.906 211.366 157.202 211.647C159.298 213.676 158.612 216.755 147.353 229.443C150.115 227.23 151.658 226.4 152.649 226.4C153.413 226.421 154.144 226.709 154.706 227.211C157.431 229.83 157.659 230.051 113.385 275.822C97.649 292.087 76.6931 313.736 63.5671 328.397C74.8833 317.332 90.2383 301.362 103.002 288.306C142.514 247.552 150.02 240.36 153.144 240.36C153.527 240.351 153.908 240.417 154.265 240.553C154.622 240.689 154.947 240.893 155.221 241.153C158.269 244.103 159.031 244.841 93.2673 314.031C89.0952 318.402 84.8278 322.883 80.6176 327.327C88.8094 319.084 97.2299 310.564 104.812 302.875C152.915 254.135 155.525 252.125 157.907 252.088C158.619 252.109 159.298 252.385 159.812 252.863C161.965 254.947 162.727 255.684 133.96 286.259C146.705 273.867 151.296 270.326 153.277 270.289C154.05 270.325 154.788 270.61 155.373 271.101C158.574 274.217 157.411 276.762 104.298 330.868C89.4953 345.953 71.2446 364.56 59.5093 377.468C73.2449 364.283 93.8008 343.353 110.318 326.479C151.353 284.636 153.43 283.032 155.64 283.014C156.353 283.029 157.034 283.306 157.545 283.788C160.536 286.665 161.355 287.476 94.6771 356.962C86.4662 365.519 77.8362 374.536 70.2158 382.558C84.8278 368.137 102.602 349.678 115.785 336.124C148.324 302.487 148.667 302.487 150.591 302.45C151.306 302.458 151.99 302.736 152.496 303.225C154.401 305.069 155.373 306.01 133.598 329.909C148.61 314.806 152.649 311.468 154.859 311.468C155.619 311.481 156.347 311.771 156.897 312.279C159.45 314.751 159.564 314.843 121.101 357.091L114.319 364.947C143.39 335.441 147.162 332.251 149.505 332.214C150.255 332.235 150.972 332.517 151.525 333.007C153.906 335.312 154.535 335.921 124.282 370.811C144.876 349.549 147.829 347.207 150.077 347.17C150.838 347.19 151.567 347.471 152.134 347.963C154.401 350.157 154.401 350.157 132.322 375.624L127.883 380.732C145.505 362.789 146.781 362.033 148.553 361.996C149.269 362.017 149.95 362.3 150.458 362.789C152.363 364.633 152.496 364.763 139.027 383.074C151.487 370.387 151.601 370.387 153.125 370.369C153.834 370.386 154.512 370.655 155.03 371.125C156.726 372.766 156.745 372.803 145.505 391.723C152.458 384.734 152.744 384.716 154.02 384.697C154.732 384.702 155.415 384.973 155.926 385.453C157.183 386.67 157.183 386.67 154.687 396.315C154.135 398.417 153.43 401.091 152.896 403.323V404.411L152.554 404.743L152.896 404.411L154.592 406.255C154.401 406.421 153.963 406.882 153.468 407.398C151.087 409.814 150.725 410.201 149.486 410.201C149.132 410.2 148.781 410.131 148.454 409.998C148.127 409.865 147.83 409.671 147.581 409.427C146.229 408.117 146.324 407.453 149.486 394.969V394.877L144.666 399.763C135.141 409.39 135.141 409.39 133.712 409.39C133.357 409.403 133.003 409.343 132.675 409.212C132.346 409.082 132.05 408.885 131.807 408.634C130.169 407.048 130.169 407.048 140.342 389.898L141.809 387.426L141.447 387.814C122.796 406.789 122.396 406.79 120.701 406.808C119.985 406.8 119.302 406.522 118.795 406.033C116.89 404.189 116.89 404.189 131.217 384.697L131.921 383.738L125.368 390.432C102.793 413.557 101.612 414.406 99.6875 414.406L99.8399 414.479ZM151.468 405.923L151.182 406.218L151.468 405.923ZM156.688 112.14L134.455 134.269C105.936 162.723 65.7389 202.666 49.7362 221.107C64.7483 207.516 93.8579 177.218 118.319 151.677C134.112 135.357 146.686 122.337 156.707 112.14H156.688ZM111.994 172.294C100.564 183.82 88.7904 195.64 78.6744 205.967C88.9428 195.788 100.64 183.912 112.013 172.294H111.994ZM139.332 117.506L116.471 140.944C101.707 156.048 85.1517 172.976 71.9876 186.733C86.2757 172.497 104.031 154.074 119.805 137.736C127.025 130.23 133.522 123.518 139.351 117.506H139.332ZM181.13 109.337C168.709 121.526 150.877 139.967 134.322 156.785C125.368 166.006 117.29 174.23 110.013 181.662C134.436 157.56 164.46 127.685 181.149 109.337H181.13ZM191.627 151.972C187.131 156.398 182.368 161.193 177.434 166.079C182.406 161.193 187.188 156.453 191.646 151.972H191.627ZM171.395 141.811C167.089 146.034 162.555 150.552 157.888 155.236L171.395 141.811ZM124.492 77.028L109.08 92.7397C93.2483 108.857 75.0548 127.353 62.8051 140.465C76.4836 127.206 95.8773 106.902 111.632 90.4346C116.338 85.5108 120.605 81.0481 124.492 77.028ZM169.375 106.773C160.669 115.477 150.515 125.933 140.285 136.537C150.801 125.823 160.993 115.477 169.375 106.773ZM128.397 80.4396L115.5 93.8646L113.861 95.598C118.776 90.5083 123.692 85.3817 128.397 80.4396Z" stroke="#414042" stroke-width="24" stroke-linejoin="round" mask="url(#path-3-inside-1)"/>
<path d="M284.496 140.76C284.721 140.485 284.962 140.195 285.22 139.889C290.595 133.503 302.203 121.336 325.873 96.8245L325.874 96.8229L326.884 95.776C338.465 83.7707 351.882 69.8621 363.16 57.8136C364.652 56.2196 364.59 53.7234 363.021 52.2052C362.731 51.9252 362.41 51.6975 362.07 51.5221C371.615 41.9744 377.665 36.0532 381.616 32.4002C382.086 31.9654 382.522 31.5667 382.927 31.2013C381.063 33.6514 378.241 37.0277 374.056 41.7228C372.62 43.3346 372.722 45.7956 374.286 47.2833C374.551 47.535 374.842 47.7435 375.149 47.9088C373.762 49.3019 372.324 50.7594 370.847 52.2685C360.905 62.4281 349.039 75.0617 338.428 86.3594L338.201 86.6007C338.2 86.6013 338.2 86.6019 338.199 86.6026C317.591 108.479 303.951 122.74 294.843 131.55C290.279 135.964 286.958 138.906 284.532 140.733C284.52 140.742 284.508 140.751 284.496 140.76ZM345.423 62.6618C345.719 62.9472 346.048 63.178 346.397 63.3543C344.31 65.4704 342.25 67.5658 340.245 69.6064C323.475 86.5542 313.95 96.0893 308.354 101.456C312.215 96.8468 318.419 89.989 328.131 79.5676C329.507 78.0918 329.568 75.8227 328.274 74.2749C327.594 73.4617 326.652 72.9814 325.665 72.867C327.047 70.5986 329.469 67.1037 333.5 61.4924C333.674 61.723 333.876 61.938 334.106 62.1323C335.699 63.4834 338.063 63.3813 339.533 61.898C344.067 57.325 349.075 52.2376 353.328 47.7872C357.033 43.9737 360.086 40.8422 362.611 38.2701C358.489 42.8692 352.87 48.9467 345.28 57.0479C343.785 58.6436 343.849 61.1439 345.423 62.6618Z" stroke="#414042" stroke-width="8" stroke-linejoin="round"/>
<mask id="path-5-inside-2" fill="white">
<path d="M251.389 331.624C250.633 331.607 249.908 331.326 249.35 330.831C246.779 328.323 247.198 326.94 277.069 292.695L282.461 286.481C278.098 290.962 273.697 295.48 269.887 299.389C247.579 322.533 247.255 322.533 245.483 322.533C244.769 322.519 244.088 322.242 243.578 321.758C241.006 319.287 241.006 319.287 279.108 278.053C289.814 266.454 302.616 252.586 312.561 241.466C302.178 251.83 289.529 264.978 279.565 275.342C246.531 309.624 242.911 312.888 240.339 312.943C239.574 312.942 238.839 312.658 238.282 312.15C237.966 311.835 237.718 311.463 237.551 311.055C237.385 310.646 237.303 310.21 237.31 309.772C237.523 308.36 238.085 307.018 238.949 305.862C237.095 307.339 234.887 308.341 232.528 308.776C231.499 308.787 230.504 308.418 229.747 307.743C226.375 304.479 225.461 303.594 335.574 194.995C377.639 153.521 427.571 104.265 449.575 80.1076C426.333 101.684 379.715 148.616 340.375 188.227C251.198 277.998 232.338 296.162 228.261 296.199C227.498 296.187 226.766 295.905 226.204 295.406C224.394 293.654 222.774 292.087 236.758 276.43C225.765 286.849 219.612 291.662 217.097 291.699C216.662 291.714 216.228 291.643 215.822 291.491C215.416 291.339 215.046 291.109 214.735 290.814C214.111 290.178 213.769 289.331 213.782 288.454C213.782 286.849 215.688 283.844 219.402 279.233C215.249 282.387 212.468 283.917 210.906 283.936C209.985 283.947 209.096 283.61 208.429 282.995C206.981 281.594 206.772 279.657 213.916 271.082C212.148 272.415 210.067 273.302 207.858 273.664C207.343 273.677 206.832 273.589 206.354 273.405C205.876 273.221 205.441 272.945 205.076 272.595C202.981 270.584 201.838 269.478 228.471 242.038C212.906 257.27 205.953 262.895 203.247 262.931C202.408 262.935 201.599 262.632 200.98 262.083C200.453 261.513 200.15 260.782 200.123 260.018C200.123 258.284 203.095 254.283 211.02 245.929C200.714 255.408 195.265 259.428 193.055 259.446C192.636 259.46 192.218 259.391 191.828 259.242C191.438 259.092 191.084 258.867 190.788 258.579C188.693 256.569 189.721 252.881 201.476 239.677C196.694 243.366 193.398 245.32 191.493 245.357C190.999 245.378 190.505 245.3 190.043 245.129C189.581 244.957 189.161 244.696 188.807 244.361C186.616 242.241 186.006 241.632 211.115 212.385C193.97 229.848 188.978 234.145 186.349 234.182C185.958 234.186 185.569 234.115 185.206 233.973C184.843 233.83 184.513 233.619 184.235 233.352C181.777 230.992 181.587 230.789 213.687 193.04C215.592 190.735 217.688 188.319 219.745 185.922C214.183 191.454 208.41 197.411 203.266 202.666C175.109 231.453 174.69 231.471 172.785 231.49C172.071 231.478 171.389 231.2 170.88 230.715C168.384 228.299 168.175 228.096 198.904 193.833L200.599 191.989C173.09 220.112 168.499 224.058 166.003 224.095C165.237 224.079 164.504 223.79 163.946 223.283C161.583 220.997 160.878 220.314 188.235 190.09C166.708 211.5 164.803 212.661 163.012 212.68C162.657 212.679 162.306 212.61 161.979 212.477C161.652 212.344 161.356 212.15 161.107 211.905C158.707 209.563 158.707 209.563 188.902 176.757C195.76 169.38 204.143 160.271 211.573 151.972C204.257 159.348 196.541 167.241 190.464 173.493C166.708 197.743 166.594 197.743 164.803 197.761C164.091 197.754 163.409 197.484 162.898 197.005C160.421 194.608 160.04 194.239 189.15 160.695L197.113 151.474C192.274 156.361 187.359 161.414 183.149 165.729C159.64 189.813 159.373 189.813 157.602 189.831C156.89 189.825 156.208 189.554 155.696 189.075C155.441 188.836 155.237 188.55 155.098 188.233C154.959 187.916 154.888 187.575 154.888 187.231C154.888 186.887 154.959 186.546 155.098 186.23C155.237 185.913 155.441 185.626 155.696 185.387C155.974 185.122 156.304 184.915 156.668 184.779C159.011 182.934 169.794 171.87 179.358 162.152C210.791 129.935 215.649 125.638 218.317 125.583C219.08 125.61 219.809 125.898 220.374 126.394C222.698 128.626 223.232 129.179 199.209 156.988C225.746 129.972 231.404 125.233 234.091 125.196C234.871 125.223 235.618 125.509 236.205 126.007C238.396 128.146 239.253 128.958 214.926 155.9C232.948 137.828 233.329 137.828 234.834 137.809C235.189 137.795 235.543 137.854 235.872 137.985C236.201 138.116 236.497 138.314 236.739 138.565C239.311 141.055 239.711 141.424 203.876 180.574L197.475 187.582L202.714 182.215C231.29 152.839 232.795 151.806 234.853 151.788C235.563 151.815 236.24 152.09 236.758 152.562C239.006 154.72 239.749 155.439 217.593 180.482C236.548 161.395 240.454 158.353 242.549 158.353C243.307 158.388 244.031 158.667 244.607 159.146C246.988 161.451 247.083 161.543 217.631 196.194C213.821 200.656 209.572 205.654 205.514 210.485C211.515 204.363 217.859 197.743 223.155 192.229C247.236 167.131 249.541 165.121 251.732 165.084C252.105 165.074 252.476 165.138 252.823 165.271C253.17 165.404 253.486 165.604 253.751 165.858C256.132 168.145 256.132 168.145 228.052 200.564C217.878 212.311 205.019 227.156 198.066 235.86C216.773 220.904 265.582 169.805 305.969 127.501C376.648 53.5341 408.406 21.0965 415.931 20.9489C416.403 20.9211 416.875 20.9924 417.316 21.1579C417.756 21.3234 418.155 21.5793 418.484 21.9079C420.808 24.1577 419.169 28.436 401.147 47.5039C419.017 30.2801 427.552 23.3463 430.505 23.3094C431.337 23.3033 432.137 23.6147 432.734 24.1761C433.082 24.5259 433.356 24.939 433.539 25.3916C433.722 25.8441 433.811 26.3272 433.801 26.8132C433.557 28.4927 432.904 30.0921 431.895 31.4787C433.744 29.9716 435.95 28.9324 438.316 28.4544C439.309 28.4471 440.268 28.8028 441.002 29.4502C444.431 32.788 445.46 33.7839 323.096 154.628C278.212 198.886 228.204 248.326 213.459 265.366C222.66 258.764 240.13 242.241 261.314 221.292C264.972 217.604 268.871 213.706 273.012 209.6C299.683 182.842 330.164 151.161 356.226 123.979C429.819 47.4671 452.013 25.2088 457.309 25.1166C457.725 25.092 458.141 25.1551 458.53 25.3016C458.918 25.448 459.268 25.6744 459.557 25.9649C462.758 29.063 463.367 29.6531 352.873 138.123C329.669 160.916 304.293 185.811 281.603 208.383C274.593 215.637 268.046 222.269 261.962 228.281C242.321 248.05 226.413 264.48 218.431 273.756C241.292 255.002 306.065 188.762 355.102 138.492C436.182 55.3229 460.567 31.1652 465.692 31.1652C466.498 31.1654 467.274 31.462 467.863 31.9951C468.235 32.3656 468.526 32.8046 468.719 33.2861C468.912 33.7676 469.004 34.2818 468.987 34.7981C468.987 37.6933 465.177 43.41 458.033 51.8191C459.006 51.8422 459.933 52.2249 460.624 52.8887C462.72 54.8988 464.434 56.5769 443.307 78.9827C455.271 67.8259 461.081 63.3263 463.101 63.3079C463.877 63.328 464.62 63.6157 465.196 64.1193C467.444 66.2953 469.006 67.8075 438.22 99.8026C453.918 84.3121 460.815 78.6508 463.444 78.5954C464.269 78.6029 465.063 78.905 465.673 79.4437C466.028 79.8001 466.306 80.2222 466.489 80.6848C466.672 81.1474 466.757 81.641 466.739 82.1361C466.739 91.6516 420.579 135.984 344.643 207.848L332.126 219.669C332.534 219.818 332.905 220.051 333.212 220.351C335.574 222.638 336.317 223.357 302.216 260.645C302.962 260.073 303.861 259.721 304.807 259.631C305.583 259.654 306.325 259.941 306.903 260.442C309.38 262.839 309.741 263.19 281.07 296.07L275.298 302.69H275.793C276.507 302.704 277.188 302.981 277.698 303.465C277.954 303.704 278.157 303.99 278.296 304.307C278.435 304.624 278.507 304.965 278.507 305.309C278.507 305.653 278.435 305.994 278.296 306.311C278.157 306.627 277.954 306.914 277.698 307.153C277.442 307.399 277.137 307.594 276.803 307.725C275.545 308.776 271.506 313.036 268.249 316.502C255.237 330.278 253.446 331.698 251.465 331.735L251.389 331.624ZM402.881 135.855C383.297 155.439 361.122 177.31 339.461 198.683C298.825 238.755 253.637 283.327 239.006 300.108C260.266 284.046 322.105 219.78 368.837 171.206C381.716 157.523 392.994 145.831 402.767 135.744L402.881 135.855ZM351.139 170.247L346.872 174.378C307.132 212.809 259.866 258.506 240.054 280.69C260.114 261.88 300.235 221.495 336.679 184.797L351.139 170.247ZM279.394 226.234C255.904 248.769 235.577 268.648 225.67 279.934C236.891 269.626 257.047 249.156 279.279 226.123L279.394 226.234ZM337.956 111.144C329.402 119.516 320.01 128.7 309.665 138.805C267.906 179.523 217.688 228.521 200.885 248.363C220.526 231.176 268.973 181.625 309.284 140.41C319.559 129.738 329.078 119.946 337.841 111.033L337.956 111.144ZM361.636 148.026C347.443 162.779 333.231 177.531 320.2 191.178L295.53 216.995C310.77 202.242 327.059 186.328 343.157 170.782C388.421 127.003 443.764 73.4873 454.604 58.4394C452.134 60.0515 449.768 61.8066 447.517 63.6951C429.095 83.1319 399.738 111.605 361.522 147.97L361.636 148.026ZM336.984 130.747C325.82 142.254 314.79 153.669 304.598 164.328C288.709 180.795 275.202 194.737 263.753 206.484C278.536 191.731 296.863 173.585 319.553 151.161C364.76 106.515 415.054 56.8535 431.438 38.2097C427.209 41.5475 421.532 46.6003 414.788 52.9625C398.042 71.09 371.257 97.5528 336.984 130.747ZM425.894 31.9029C408.749 45.8996 356.245 99.5997 312.999 143.821C293.948 163.332 277.641 179.929 263.81 193.925C271.43 186.549 279.902 178.41 289.224 169.509C302.75 156.509 317.991 141.848 333.288 127.095C366.742 92.6659 392.898 66.2031 411.016 49.2927C416.312 43.7672 421.279 37.9551 425.894 31.8844V31.9029ZM457.938 88.111C444.05 100.356 410.597 135.006 377.162 169.749C412.273 136.279 446.965 102.421 457.938 88.111ZM460.967 39.9985C445.06 53.6817 399.604 100.245 358.835 141.996L340.242 161.045L357.826 144.338C396.308 104.505 425.475 75.2392 442.564 61.1318C449.133 54.453 455.278 47.3957 460.967 39.9985V39.9985ZM409.796 30.3538C392.479 44.5718 347.253 91.9098 309.837 131.097C309.551 131.374 309.265 131.669 308.999 131.964C350.567 91.4304 395.794 47.2273 409.796 30.3538Z"/>
</mask>
<path d="M251.389 331.624C250.633 331.607 249.908 331.326 249.35 330.831C246.779 328.323 247.198 326.94 277.069 292.695L282.461 286.481C278.098 290.962 273.697 295.48 269.887 299.389C247.579 322.533 247.255 322.533 245.483 322.533C244.769 322.519 244.088 322.242 243.578 321.758C241.006 319.287 241.006 319.287 279.108 278.053C289.814 266.454 302.616 252.586 312.561 241.466C302.178 251.83 289.529 264.978 279.565 275.342C246.531 309.624 242.911 312.888 240.339 312.943C239.574 312.942 238.839 312.658 238.282 312.15C237.966 311.835 237.718 311.463 237.551 311.055C237.385 310.646 237.303 310.21 237.31 309.772C237.523 308.36 238.085 307.018 238.949 305.862C237.095 307.339 234.887 308.341 232.528 308.776C231.499 308.787 230.504 308.418 229.747 307.743C226.375 304.479 225.461 303.594 335.574 194.995C377.639 153.521 427.571 104.265 449.575 80.1076C426.333 101.684 379.715 148.616 340.375 188.227C251.198 277.998 232.338 296.162 228.261 296.199C227.498 296.187 226.766 295.905 226.204 295.406C224.394 293.654 222.774 292.087 236.758 276.43C225.765 286.849 219.612 291.662 217.097 291.699C216.662 291.714 216.228 291.643 215.822 291.491C215.416 291.339 215.046 291.109 214.735 290.814C214.111 290.178 213.769 289.331 213.782 288.454C213.782 286.849 215.688 283.844 219.402 279.233C215.249 282.387 212.468 283.917 210.906 283.936C209.985 283.947 209.096 283.61 208.429 282.995C206.981 281.594 206.772 279.657 213.916 271.082C212.148 272.415 210.067 273.302 207.858 273.664C207.343 273.677 206.832 273.589 206.354 273.405C205.876 273.221 205.441 272.945 205.076 272.595C202.981 270.584 201.838 269.478 228.471 242.038C212.906 257.27 205.953 262.895 203.247 262.931C202.408 262.935 201.599 262.632 200.98 262.083C200.453 261.513 200.15 260.782 200.123 260.018C200.123 258.284 203.095 254.283 211.02 245.929C200.714 255.408 195.265 259.428 193.055 259.446C192.636 259.46 192.218 259.391 191.828 259.242C191.438 259.092 191.084 258.867 190.788 258.579C188.693 256.569 189.721 252.881 201.476 239.677C196.694 243.366 193.398 245.32 191.493 245.357C190.999 245.378 190.505 245.3 190.043 245.129C189.581 244.957 189.161 244.696 188.807 244.361C186.616 242.241 186.006 241.632 211.115 212.385C193.97 229.848 188.978 234.145 186.349 234.182C185.958 234.186 185.569 234.115 185.206 233.973C184.843 233.83 184.513 233.619 184.235 233.352C181.777 230.992 181.587 230.789 213.687 193.04C215.592 190.735 217.688 188.319 219.745 185.922C214.183 191.454 208.41 197.411 203.266 202.666C175.109 231.453 174.69 231.471 172.785 231.49C172.071 231.478 171.389 231.2 170.88 230.715C168.384 228.299 168.175 228.096 198.904 193.833L200.599 191.989C173.09 220.112 168.499 224.058 166.003 224.095C165.237 224.079 164.504 223.79 163.946 223.283C161.583 220.997 160.878 220.314 188.235 190.09C166.708 211.5 164.803 212.661 163.012 212.68C162.657 212.679 162.306 212.61 161.979 212.477C161.652 212.344 161.356 212.15 161.107 211.905C158.707 209.563 158.707 209.563 188.902 176.757C195.76 169.38 204.143 160.271 211.573 151.972C204.257 159.348 196.541 167.241 190.464 173.493C166.708 197.743 166.594 197.743 164.803 197.761C164.091 197.754 163.409 197.484 162.898 197.005C160.421 194.608 160.04 194.239 189.15 160.695L197.113 151.474C192.274 156.361 187.359 161.414 183.149 165.729C159.64 189.813 159.373 189.813 157.602 189.831C156.89 189.825 156.208 189.554 155.696 189.075C155.441 188.836 155.237 188.55 155.098 188.233C154.959 187.916 154.888 187.575 154.888 187.231C154.888 186.887 154.959 186.546 155.098 186.23C155.237 185.913 155.441 185.626 155.696 185.387C155.974 185.122 156.304 184.915 156.668 184.779C159.011 182.934 169.794 171.87 179.358 162.152C210.791 129.935 215.649 125.638 218.317 125.583C219.08 125.61 219.809 125.898 220.374 126.394C222.698 128.626 223.232 129.179 199.209 156.988C225.746 129.972 231.404 125.233 234.091 125.196C234.871 125.223 235.618 125.509 236.205 126.007C238.396 128.146 239.253 128.958 214.926 155.9C232.948 137.828 233.329 137.828 234.834 137.809C235.189 137.795 235.543 137.854 235.872 137.985C236.201 138.116 236.497 138.314 236.739 138.565C239.311 141.055 239.711 141.424 203.876 180.574L197.475 187.582L202.714 182.215C231.29 152.839 232.795 151.806 234.853 151.788C235.563 151.815 236.24 152.09 236.758 152.562C239.006 154.72 239.749 155.439 217.593 180.482C236.548 161.395 240.454 158.353 242.549 158.353C243.307 158.388 244.031 158.667 244.607 159.146C246.988 161.451 247.083 161.543 217.631 196.194C213.821 200.656 209.572 205.654 205.514 210.485C211.515 204.363 217.859 197.743 223.155 192.229C247.236 167.131 249.541 165.121 251.732 165.084C252.105 165.074 252.476 165.138 252.823 165.271C253.17 165.404 253.486 165.604 253.751 165.858C256.132 168.145 256.132 168.145 228.052 200.564C217.878 212.311 205.019 227.156 198.066 235.86C216.773 220.904 265.582 169.805 305.969 127.501C376.648 53.5341 408.406 21.0965 415.931 20.9489C416.403 20.9211 416.875 20.9924 417.316 21.1579C417.756 21.3234 418.155 21.5793 418.484 21.9079C420.808 24.1577 419.169 28.436 401.147 47.5039C419.017 30.2801 427.552 23.3463 430.505 23.3094C431.337 23.3033 432.137 23.6147 432.734 24.1761C433.082 24.5259 433.356 24.939 433.539 25.3916C433.722 25.8441 433.811 26.3272 433.801 26.8132C433.557 28.4927 432.904 30.0921 431.895 31.4787C433.744 29.9716 435.95 28.9324 438.316 28.4544C439.309 28.4471 440.268 28.8028 441.002 29.4502C444.431 32.788 445.46 33.7839 323.096 154.628C278.212 198.886 228.204 248.326 213.459 265.366C222.66 258.764 240.13 242.241 261.314 221.292C264.972 217.604 268.871 213.706 273.012 209.6C299.683 182.842 330.164 151.161 356.226 123.979C429.819 47.4671 452.013 25.2088 457.309 25.1166C457.725 25.092 458.141 25.1551 458.53 25.3016C458.918 25.448 459.268 25.6744 459.557 25.9649C462.758 29.063 463.367 29.6531 352.873 138.123C329.669 160.916 304.293 185.811 281.603 208.383C274.593 215.637 268.046 222.269 261.962 228.281C242.321 248.05 226.413 264.48 218.431 273.756C241.292 255.002 306.065 188.762 355.102 138.492C436.182 55.3229 460.567 31.1652 465.692 31.1652C466.498 31.1654 467.274 31.462 467.863 31.9951C468.235 32.3656 468.526 32.8046 468.719 33.2861C468.912 33.7676 469.004 34.2818 468.987 34.7981C468.987 37.6933 465.177 43.41 458.033 51.8191C459.006 51.8422 459.933 52.2249 460.624 52.8887C462.72 54.8988 464.434 56.5769 443.307 78.9827C455.271 67.8259 461.081 63.3263 463.101 63.3079C463.877 63.328 464.62 63.6157 465.196 64.1193C467.444 66.2953 469.006 67.8075 438.22 99.8026C453.918 84.3121 460.815 78.6508 463.444 78.5954C464.269 78.6029 465.063 78.905 465.673 79.4437C466.028 79.8001 466.306 80.2222 466.489 80.6848C466.672 81.1474 466.757 81.641 466.739 82.1361C466.739 91.6516 420.579 135.984 344.643 207.848L332.126 219.669C332.534 219.818 332.905 220.051 333.212 220.351C335.574 222.638 336.317 223.357 302.216 260.645C302.962 260.073 303.861 259.721 304.807 259.631C305.583 259.654 306.325 259.941 306.903 260.442C309.38 262.839 309.741 263.19 281.07 296.07L275.298 302.69H275.793C276.507 302.704 277.188 302.981 277.698 303.465C277.954 303.704 278.157 303.99 278.296 304.307C278.435 304.624 278.507 304.965 278.507 305.309C278.507 305.653 278.435 305.994 278.296 306.311C278.157 306.627 277.954 306.914 277.698 307.153C277.442 307.399 277.137 307.594 276.803 307.725C275.545 308.776 271.506 313.036 268.249 316.502C255.237 330.278 253.446 331.698 251.465 331.735L251.389 331.624ZM402.881 135.855C383.297 155.439 361.122 177.31 339.461 198.683C298.825 238.755 253.637 283.327 239.006 300.108C260.266 284.046 322.105 219.78 368.837 171.206C381.716 157.523 392.994 145.831 402.767 135.744L402.881 135.855ZM351.139 170.247L346.872 174.378C307.132 212.809 259.866 258.506 240.054 280.69C260.114 261.88 300.235 221.495 336.679 184.797L351.139 170.247ZM279.394 226.234C255.904 248.769 235.577 268.648 225.67 279.934C236.891 269.626 257.047 249.156 279.279 226.123L279.394 226.234ZM337.956 111.144C329.402 119.516 320.01 128.7 309.665 138.805C267.906 179.523 217.688 228.521 200.885 248.363C220.526 231.176 268.973 181.625 309.284 140.41C319.559 129.738 329.078 119.946 337.841 111.033L337.956 111.144ZM361.636 148.026C347.443 162.779 333.231 177.531 320.2 191.178L295.53 216.995C310.77 202.242 327.059 186.328 343.157 170.782C388.421 127.003 443.764 73.4873 454.604 58.4394C452.134 60.0515 449.768 61.8066 447.517 63.6951C429.095 83.1319 399.738 111.605 361.522 147.97L361.636 148.026ZM336.984 130.747C325.82 142.254 314.79 153.669 304.598 164.328C288.709 180.795 275.202 194.737 263.753 206.484C278.536 191.731 296.863 173.585 319.553 151.161C364.76 106.515 415.054 56.8535 431.438 38.2097C427.209 41.5475 421.532 46.6003 414.788 52.9625C398.042 71.09 371.257 97.5528 336.984 130.747ZM425.894 31.9029C408.749 45.8996 356.245 99.5997 312.999 143.821C293.948 163.332 277.641 179.929 263.81 193.925C271.43 186.549 279.902 178.41 289.224 169.509C302.75 156.509 317.991 141.848 333.288 127.095C366.742 92.6659 392.898 66.2031 411.016 49.2927C416.312 43.7672 421.279 37.9551 425.894 31.8844V31.9029ZM457.938 88.111C444.05 100.356 410.597 135.006 377.162 169.749C412.273 136.279 446.965 102.421 457.938 88.111ZM460.967 39.9985C445.06 53.6817 399.604 100.245 358.835 141.996L340.242 161.045L357.826 144.338C396.308 104.505 425.475 75.2392 442.564 61.1318C449.133 54.453 455.278 47.3957 460.967 39.9985V39.9985ZM409.796 30.3538C392.479 44.5718 347.253 91.9098 309.837 131.097C309.551 131.374 309.265 131.669 308.999 131.964C350.567 91.4304 395.794 47.2273 409.796 30.3538Z" stroke="#414042" stroke-width="24" stroke-linejoin="round" mask="url(#path-5-inside-2)"/>
<mask id="path-6-inside-3" fill="white">
<path d="M420.731 415.715C420.018 415.682 419.341 415.401 418.826 414.922C416.616 412.801 416.54 412.709 436.315 388.238C413.816 411.105 413.282 411.105 411.549 411.123C411.195 411.127 410.844 411.062 410.517 410.932C410.19 410.802 409.893 410.61 409.644 410.367C407.148 407.951 406.843 407.638 437.267 372.784L441.668 367.732L438.963 370.571C408.748 402.142 401.985 408.541 398.728 408.597C398.326 408.608 397.927 408.54 397.554 408.397C397.181 408.254 396.841 408.04 396.556 407.767C394.098 405.388 394.003 405.296 424.618 370.793L431.705 362.808L422.179 372.416C387.373 407.859 383.563 411.142 381.182 411.142C380.434 411.127 379.717 410.852 379.162 410.367C376.876 408.117 376.076 407.361 404.805 376.417C373.657 407.933 373.123 407.933 371.275 407.97C370.921 407.97 370.569 407.901 370.242 407.768C369.915 407.635 369.619 407.441 369.37 407.195C366.741 404.65 366.703 404.613 409.377 359.027C419.398 348.313 431.19 335.681 440.906 325.022C429.761 336.087 416.311 349.991 404.995 361.683C367.275 400.575 363.179 404.245 360.588 404.282C360.21 404.294 359.833 404.229 359.482 404.093C359.131 403.956 358.814 403.75 358.549 403.489C356.111 401.128 356.378 398.712 381.201 372.416C361.75 391.631 357.444 394.969 355.368 394.987C354.624 394.943 353.915 394.664 353.349 394.194C350.148 391.115 351.443 388.422 408.062 329.651C424.37 312.759 443.345 293.064 454.451 280.561C440.678 293.47 418.255 316.761 401.833 333.892C364.246 372.969 360.131 376.675 357.483 376.712C356.732 376.694 356.014 376.413 355.463 375.919C352.796 373.319 352.682 373.227 394.803 329.964C410.177 314.179 430.39 293.433 443.973 278.533C431.476 290.74 414.787 307.688 401.033 321.666C357.216 366.09 352.987 369.963 350.472 369.981C349.765 369.937 349.094 369.664 348.567 369.207C345.728 366.478 345.366 366.127 396.575 313.718C418.102 291.699 445.707 263.448 458.204 248.75C444.773 260.995 420.103 286.554 402.404 305.014C364.836 344.053 360.74 347.76 358.111 347.797C357.359 347.786 356.639 347.503 356.092 347.004C353.463 344.459 353.463 344.459 399.661 296.199C413.13 282.11 429.19 265.329 441.763 251.812C430.771 262.876 417.836 276.209 406.862 287.569C366.551 329.319 358.321 337.212 355.082 337.359C354.303 337.325 353.559 337.04 352.967 336.548C351.062 334.704 350.758 332.97 361.921 320.596C358.111 323.584 355.711 325.022 354.301 325.041C353.431 325.051 352.591 324.734 351.958 324.156C348.91 321.205 350.053 319.01 401.204 266.73C407.891 259.907 415.245 252.402 422.427 245.007L414.445 253.029C364.398 303.391 358.683 308.499 356.035 308.536C355.328 308.478 354.659 308.2 354.13 307.743C351.443 305.161 351.291 305.014 402.404 251.019C414.159 238.608 428.009 223.966 439.363 211.684C428.333 222.749 415.473 235.989 404.519 247.275C364.76 288.269 357.235 295.48 354.225 295.535C353.457 295.521 352.72 295.239 352.148 294.742C349.957 292.603 350.129 289.874 368.894 269.257C361.712 276.283 359.254 277.961 357.711 277.979C356.945 277.954 356.212 277.674 355.635 277.186C353.634 275.342 352.968 274.605 371.904 254.762C365.522 260.626 362.036 262.987 360.073 263.024C359.641 263.037 359.211 262.965 358.808 262.813C358.405 262.661 358.039 262.432 357.73 262.139C354.968 259.446 354.606 259.114 405.129 205.396L418.217 191.454L414.197 195.567C370.075 240.618 363.426 246.63 360.435 246.667C359.677 246.635 358.951 246.356 358.378 245.874C355.692 243.273 355.406 242.997 398.899 197.595C414.14 181.717 434.334 160.584 447.098 146.163C436.524 156.545 422.332 171.188 409.777 184.004C368.113 226.769 362.855 231.434 360.054 231.471C359.29 231.464 358.557 231.181 357.997 230.678C355.063 227.82 356.282 223.91 399.032 178.343L398.004 179.394C363.865 214.432 363.464 214.432 361.521 214.432C360.817 214.392 360.146 214.126 359.616 213.676C356.492 210.633 357.711 208.143 409.587 155.513C424.16 140.17 442.945 121.065 454.375 108.617C441.039 121.305 419.874 143.213 402.938 160.695C362.931 202.132 355.311 209.434 352.263 209.49C351.484 209.481 350.737 209.192 350.167 208.678C348.262 206.834 347.309 205.912 364.398 187.268C363.164 188.355 361.639 189.084 359.997 189.37C359.579 189.378 359.163 189.306 358.774 189.157C358.385 189.008 358.03 188.786 357.73 188.504C357.474 188.265 357.271 187.978 357.132 187.661C356.993 187.344 356.921 187.004 356.921 186.66C356.921 186.315 356.993 185.975 357.132 185.658C357.271 185.341 357.474 185.055 357.73 184.815C358.012 184.543 358.354 184.337 358.73 184.212C359.106 184.088 359.507 184.048 359.902 184.096C365.941 181.164 397.546 148.376 418.617 126.524C453.003 90.8771 456.49 87.7975 458.928 87.7975C459.679 87.8119 460.398 88.0943 460.948 88.5904C462.853 90.4345 463.462 91.0062 446.164 109.244C457.976 97.7925 463.748 93.256 466.282 93.2007C466.704 93.1838 467.125 93.2522 467.519 93.4014C467.913 93.5506 468.27 93.7774 468.568 94.0674C470.854 96.2988 469.806 99.5997 453.956 116.676C456.509 114.721 458.071 113.947 459.081 113.928C459.482 113.918 459.881 113.986 460.254 114.128C460.627 114.271 460.967 114.485 461.252 114.758C463.9 117.1 463.9 117.1 427.704 155.052C412.463 171.022 390.879 193.778 376.591 209.877C385.335 201.117 395.946 190.237 405.433 180.519C448.241 136.574 457.595 127.685 461.005 127.63C461.785 127.657 462.532 127.943 463.119 128.441C465.92 131.152 463.539 135.984 435.629 165.895C453.899 147.565 457.061 145.204 459.062 145.167C459.809 145.196 460.523 145.477 461.081 145.96C463.939 148.726 464.529 149.298 408.52 208.863C400.156 217.733 390.974 227.506 382.953 236.174C393.146 225.828 404.919 213.454 414.959 202.98C452.527 163.516 463.253 152.82 467.215 152.747C467.615 152.74 468.012 152.811 468.382 152.957C468.752 153.103 469.087 153.32 469.368 153.595C471.273 155.439 472.359 156.49 456.223 174.101C457.325 173.254 458.64 172.706 460.033 172.515C460.467 172.501 460.899 172.574 461.303 172.73C461.706 172.885 462.071 173.12 462.376 173.419C465.005 175.964 465.063 176.001 423.722 218.655C409.034 233.813 390.155 253.287 376.095 268.574C383.716 260.921 392.098 252.18 400.156 243.882C447.441 195.124 459.214 183.912 463.215 183.857C464.017 183.85 464.789 184.148 465.367 184.686C468.015 187.25 468.682 187.914 416.102 243.587C457.099 202.371 459.309 200.748 461.462 200.73C462.173 200.741 462.853 201.011 463.367 201.486C466.987 205.008 462.319 211.334 404.481 270.345C392.574 282.479 379.029 296.31 369.237 306.747C384.478 292.16 407.148 268.703 422.808 252.457C456.394 217.64 456.814 217.622 458.814 217.585C459.528 217.599 460.209 217.876 460.719 218.36C462.624 220.204 462.986 222.048 451.841 234.366C458.852 227.838 462.529 225.146 464.396 225.146C464.805 225.128 465.214 225.194 465.595 225.34C465.976 225.487 466.32 225.709 466.606 225.994C468.339 227.654 469.273 228.576 455.823 243.605C461.271 238.848 464.529 236.764 466.301 236.727C466.721 236.721 467.137 236.797 467.526 236.949C467.916 237.101 468.27 237.326 468.568 237.612C471.045 240.009 469.425 244.14 449.708 265.458C456.661 259.022 459.138 257.491 460.586 257.473C461.354 257.501 462.089 257.788 462.662 258.284C464.339 259.907 464.701 261.751 456.947 271.193C461.214 267.634 463.9 266.03 465.425 265.993C465.859 265.97 466.294 266.039 466.699 266.195C467.103 266.351 467.468 266.591 467.768 266.896C470.987 270.013 469.54 273.056 411.434 333.284C402.195 342.855 392.079 353.348 383.106 362.789C393.222 352.721 404.462 341.361 414.216 331.44C458.319 286.905 460.509 285.19 462.7 285.171C463.409 285.208 464.082 285.482 464.605 285.946C466.949 288.214 466.853 290.04 443.383 314.751C455.061 303.409 459.652 299.998 461.9 299.998C462.299 299.995 462.695 300.069 463.064 300.214C463.433 300.36 463.769 300.574 464.053 300.846C466.282 303.022 467.063 303.76 439.077 334.132C457.233 316.152 461.462 312.888 463.519 312.851C463.903 312.832 464.286 312.894 464.642 313.034C464.998 313.175 465.317 313.389 465.577 313.663C468.073 316.078 468.168 316.171 432.619 353.938C454.527 331.809 457.595 329.393 459.652 329.356C460.365 329.389 461.042 329.67 461.557 330.149C464.015 332.528 464.472 332.952 431.324 370.35L434.467 367.068C462.453 337.82 465.882 334.833 468.396 334.796C469.172 334.799 469.919 335.082 470.492 335.589C472.988 338.005 473.464 338.466 442.163 374.315C456.375 359.949 456.814 359.931 458.319 359.931C458.672 359.928 459.023 359.993 459.35 360.122C459.677 360.252 459.974 360.444 460.224 360.687C462.338 362.734 462.681 363.066 443.992 386.283C465.12 364.468 466.434 363.619 468.416 363.582C468.788 363.576 469.159 363.641 469.505 363.774C469.852 363.907 470.168 364.105 470.435 364.357C472.245 366.201 472.245 366.201 457.785 386.486L453.975 391.797C458.547 387.076 458.719 387.076 459.881 387.058C460.235 387.048 460.588 387.11 460.916 387.24C461.244 387.37 461.541 387.566 461.786 387.814C463.1 389.086 463.1 389.086 459.519 400.981C459.347 401.534 459.176 402.124 458.985 402.714C459.411 402.402 459.938 402.245 460.471 402.271C461.178 402.284 461.856 402.546 462.376 403.009C462.635 403.247 462.84 403.533 462.981 403.85C463.121 404.167 463.194 404.508 463.194 404.853C463.194 405.198 463.121 405.54 462.981 405.857C462.84 406.174 462.635 406.46 462.376 406.697C462.225 406.842 462.059 406.972 461.881 407.085C461.31 407.601 459.671 409.261 458.661 410.293C455.251 413.723 455.194 413.797 453.975 413.797C453.623 413.803 453.273 413.741 452.946 413.614C452.619 413.487 452.321 413.299 452.07 413.059C450.736 411.769 450.736 411.769 454.413 399.616L454.756 398.491C440.925 412.801 439.896 413.41 438.163 413.447C437.426 413.395 436.725 413.118 436.162 412.654C434.162 410.81 434.124 410.681 452.165 385.324L446.45 391.281C424.694 413.742 422.389 415.715 420.255 415.752L420.731 415.715Z"/>
</mask>
<path d="M420.731 415.715C420.018 415.682 419.341 415.401 418.826 414.922C416.616 412.801 416.54 412.709 436.315 388.238C413.816 411.105 413.282 411.105 411.549 411.123C411.195 411.127 410.844 411.062 410.517 410.932C410.19 410.802 409.893 410.61 409.644 410.367C407.148 407.951 406.843 407.638 437.267 372.784L441.668 367.732L438.963 370.571C408.748 402.142 401.985 408.541 398.728 408.597C398.326 408.608 397.927 408.54 397.554 408.397C397.181 408.254 396.841 408.04 396.556 407.767C394.098 405.388 394.003 405.296 424.618 370.793L431.705 362.808L422.179 372.416C387.373 407.859 383.563 411.142 381.182 411.142C380.434 411.127 379.717 410.852 379.162 410.367C376.876 408.117 376.076 407.361 404.805 376.417C373.657 407.933 373.123 407.933 371.275 407.97C370.921 407.97 370.569 407.901 370.242 407.768C369.915 407.635 369.619 407.441 369.37 407.195C366.741 404.65 366.703 404.613 409.377 359.027C419.398 348.313 431.19 335.681 440.906 325.022C429.761 336.087 416.311 349.991 404.995 361.683C367.275 400.575 363.179 404.245 360.588 404.282C360.21 404.294 359.833 404.229 359.482 404.093C359.131 403.956 358.814 403.75 358.549 403.489C356.111 401.128 356.378 398.712 381.201 372.416C361.75 391.631 357.444 394.969 355.368 394.987C354.624 394.943 353.915 394.664 353.349 394.194C350.148 391.115 351.443 388.422 408.062 329.651C424.37 312.759 443.345 293.064 454.451 280.561C440.678 293.47 418.255 316.761 401.833 333.892C364.246 372.969 360.131 376.675 357.483 376.712C356.732 376.694 356.014 376.413 355.463 375.919C352.796 373.319 352.682 373.227 394.803 329.964C410.177 314.179 430.39 293.433 443.973 278.533C431.476 290.74 414.787 307.688 401.033 321.666C357.216 366.09 352.987 369.963 350.472 369.981C349.765 369.937 349.094 369.664 348.567 369.207C345.728 366.478 345.366 366.127 396.575 313.718C418.102 291.699 445.707 263.448 458.204 248.75C444.773 260.995 420.103 286.554 402.404 305.014C364.836 344.053 360.74 347.76 358.111 347.797C357.359 347.786 356.639 347.503 356.092 347.004C353.463 344.459 353.463 344.459 399.661 296.199C413.13 282.11 429.19 265.329 441.763 251.812C430.771 262.876 417.836 276.209 406.862 287.569C366.551 329.319 358.321 337.212 355.082 337.359C354.303 337.325 353.559 337.04 352.967 336.548C351.062 334.704 350.758 332.97 361.921 320.596C358.111 323.584 355.711 325.022 354.301 325.041C353.431 325.051 352.591 324.734 351.958 324.156C348.91 321.205 350.053 319.01 401.204 266.73C407.891 259.907 415.245 252.402 422.427 245.007L414.445 253.029C364.398 303.391 358.683 308.499 356.035 308.536C355.328 308.478 354.659 308.2 354.13 307.743C351.443 305.161 351.291 305.014 402.404 251.019C414.159 238.608 428.009 223.966 439.363 211.684C428.333 222.749 415.473 235.989 404.519 247.275C364.76 288.269 357.235 295.48 354.225 295.535C353.457 295.521 352.72 295.239 352.148 294.742C349.957 292.603 350.129 289.874 368.894 269.257C361.712 276.283 359.254 277.961 357.711 277.979C356.945 277.954 356.212 277.674 355.635 277.186C353.634 275.342 352.968 274.605 371.904 254.762C365.522 260.626 362.036 262.987 360.073 263.024C359.641 263.037 359.211 262.965 358.808 262.813C358.405 262.661 358.039 262.432 357.73 262.139C354.968 259.446 354.606 259.114 405.129 205.396L418.217 191.454L414.197 195.567C370.075 240.618 363.426 246.63 360.435 246.667C359.677 246.635 358.951 246.356 358.378 245.874C355.692 243.273 355.406 242.997 398.899 197.595C414.14 181.717 434.334 160.584 447.098 146.163C436.524 156.545 422.332 171.188 409.777 184.004C368.113 226.769 362.855 231.434 360.054 231.471C359.29 231.464 358.557 231.181 357.997 230.678C355.063 227.82 356.282 223.91 399.032 178.343L398.004 179.394C363.865 214.432 363.464 214.432 361.521 214.432C360.817 214.392 360.146 214.126 359.616 213.676C356.492 210.633 357.711 208.143 409.587 155.513C424.16 140.17 442.945 121.065 454.375 108.617C441.039 121.305 419.874 143.213 402.938 160.695C362.931 202.132 355.311 209.434 352.263 209.49C351.484 209.481 350.737 209.192 350.167 208.678C348.262 206.834 347.309 205.912 364.398 187.268C363.164 188.355 361.639 189.084 359.997 189.37C359.579 189.378 359.163 189.306 358.774 189.157C358.385 189.008 358.03 188.786 357.73 188.504C357.474 188.265 357.271 187.978 357.132 187.661C356.993 187.344 356.921 187.004 356.921 186.66C356.921 186.315 356.993 185.975 357.132 185.658C357.271 185.341 357.474 185.055 357.73 184.815C358.012 184.543 358.354 184.337 358.73 184.212C359.106 184.088 359.507 184.048 359.902 184.096C365.941 181.164 397.546 148.376 418.617 126.524C453.003 90.8771 456.49 87.7975 458.928 87.7975C459.679 87.8119 460.398 88.0943 460.948 88.5904C462.853 90.4345 463.462 91.0062 446.164 109.244C457.976 97.7925 463.748 93.256 466.282 93.2007C466.704 93.1838 467.125 93.2522 467.519 93.4014C467.913 93.5506 468.27 93.7774 468.568 94.0674C470.854 96.2988 469.806 99.5997 453.956 116.676C456.509 114.721 458.071 113.947 459.081 113.928C459.482 113.918 459.881 113.986 460.254 114.128C460.627 114.271 460.967 114.485 461.252 114.758C463.9 117.1 463.9 117.1 427.704 155.052C412.463 171.022 390.879 193.778 376.591 209.877C385.335 201.117 395.946 190.237 405.433 180.519C448.241 136.574 457.595 127.685 461.005 127.63C461.785 127.657 462.532 127.943 463.119 128.441C465.92 131.152 463.539 135.984 435.629 165.895C453.899 147.565 457.061 145.204 459.062 145.167C459.809 145.196 460.523 145.477 461.081 145.96C463.939 148.726 464.529 149.298 408.52 208.863C400.156 217.733 390.974 227.506 382.953 236.174C393.146 225.828 404.919 213.454 414.959 202.98C452.527 163.516 463.253 152.82 467.215 152.747C467.615 152.74 468.012 152.811 468.382 152.957C468.752 153.103 469.087 153.32 469.368 153.595C471.273 155.439 472.359 156.49 456.223 174.101C457.325 173.254 458.64 172.706 460.033 172.515C460.467 172.501 460.899 172.574 461.303 172.73C461.706 172.885 462.071 173.12 462.376 173.419C465.005 175.964 465.063 176.001 423.722 218.655C409.034 233.813 390.155 253.287 376.095 268.574C383.716 260.921 392.098 252.18 400.156 243.882C447.441 195.124 459.214 183.912 463.215 183.857C464.017 183.85 464.789 184.148 465.367 184.686C468.015 187.25 468.682 187.914 416.102 243.587C457.099 202.371 459.309 200.748 461.462 200.73C462.173 200.741 462.853 201.011 463.367 201.486C466.987 205.008 462.319 211.334 404.481 270.345C392.574 282.479 379.029 296.31 369.237 306.747C384.478 292.16 407.148 268.703 422.808 252.457C456.394 217.64 456.814 217.622 458.814 217.585C459.528 217.599 460.209 217.876 460.719 218.36C462.624 220.204 462.986 222.048 451.841 234.366C458.852 227.838 462.529 225.146 464.396 225.146C464.805 225.128 465.214 225.194 465.595 225.34C465.976 225.487 466.32 225.709 466.606 225.994C468.339 227.654 469.273 228.576 455.823 243.605C461.271 238.848 464.529 236.764 466.301 236.727C466.721 236.721 467.137 236.797 467.526 236.949C467.916 237.101 468.27 237.326 468.568 237.612C471.045 240.009 469.425 244.14 449.708 265.458C456.661 259.022 459.138 257.491 460.586 257.473C461.354 257.501 462.089 257.788 462.662 258.284C464.339 259.907 464.701 261.751 456.947 271.193C461.214 267.634 463.9 266.03 465.425 265.993C465.859 265.97 466.294 266.039 466.699 266.195C467.103 266.351 467.468 266.591 467.768 266.896C470.987 270.013 469.54 273.056 411.434 333.284C402.195 342.855 392.079 353.348 383.106 362.789C393.222 352.721 404.462 341.361 414.216 331.44C458.319 286.905 460.509 285.19 462.7 285.171C463.409 285.208 464.082 285.482 464.605 285.946C466.949 288.214 466.853 290.04 443.383 314.751C455.061 303.409 459.652 299.998 461.9 299.998C462.299 299.995 462.695 300.069 463.064 300.214C463.433 300.36 463.769 300.574 464.053 300.846C466.282 303.022 467.063 303.76 439.077 334.132C457.233 316.152 461.462 312.888 463.519 312.851C463.903 312.832 464.286 312.894 464.642 313.034C464.998 313.175 465.317 313.389 465.577 313.663C468.073 316.078 468.168 316.171 432.619 353.938C454.527 331.809 457.595 329.393 459.652 329.356C460.365 329.389 461.042 329.67 461.557 330.149C464.015 332.528 464.472 332.952 431.324 370.35L434.467 367.068C462.453 337.82 465.882 334.833 468.396 334.796C469.172 334.799 469.919 335.082 470.492 335.589C472.988 338.005 473.464 338.466 442.163 374.315C456.375 359.949 456.814 359.931 458.319 359.931C458.672 359.928 459.023 359.993 459.35 360.122C459.677 360.252 459.974 360.444 460.224 360.687C462.338 362.734 462.681 363.066 443.992 386.283C465.12 364.468 466.434 363.619 468.416 363.582C468.788 363.576 469.159 363.641 469.505 363.774C469.852 363.907 470.168 364.105 470.435 364.357C472.245 366.201 472.245 366.201 457.785 386.486L453.975 391.797C458.547 387.076 458.719 387.076 459.881 387.058C460.235 387.048 460.588 387.11 460.916 387.24C461.244 387.37 461.541 387.566 461.786 387.814C463.1 389.086 463.1 389.086 459.519 400.981C459.347 401.534 459.176 402.124 458.985 402.714C459.411 402.402 459.938 402.245 460.471 402.271C461.178 402.284 461.856 402.546 462.376 403.009C462.635 403.247 462.84 403.533 462.981 403.85C463.121 404.167 463.194 404.508 463.194 404.853C463.194 405.198 463.121 405.54 462.981 405.857C462.84 406.174 462.635 406.46 462.376 406.697C462.225 406.842 462.059 406.972 461.881 407.085C461.31 407.601 459.671 409.261 458.661 410.293C455.251 413.723 455.194 413.797 453.975 413.797C453.623 413.803 453.273 413.741 452.946 413.614C452.619 413.487 452.321 413.299 452.07 413.059C450.736 411.769 450.736 411.769 454.413 399.616L454.756 398.491C440.925 412.801 439.896 413.41 438.163 413.447C437.426 413.395 436.725 413.118 436.162 412.654C434.162 410.81 434.124 410.681 452.165 385.324L446.45 391.281C424.694 413.742 422.389 415.715 420.255 415.752L420.731 415.715Z" stroke="#414042" stroke-width="24" stroke-linejoin="round" mask="url(#path-6-inside-3)"/>
<mask id="path-7-inside-4" fill="white">
<path d="M248.405 2.56329H245.623V434.654H248.405V2.56329Z"/>
</mask>
<path d="M245.623 2.56329V-1.43671H241.623V2.56329H245.623ZM248.405 2.56329H252.405V-1.43671H248.405V2.56329ZM248.405 434.654V438.654H252.405V434.654H248.405ZM245.623 434.654H241.623V438.654H245.623V434.654ZM245.623 6.56329H248.405V-1.43671H245.623V6.56329ZM244.405 2.56329V434.654H252.405V2.56329H244.405ZM248.405 430.654H245.623V438.654H248.405V430.654ZM249.623 434.654V2.56329H241.623V434.654H249.623Z" fill="#A7A9AC" mask="url(#path-7-inside-4)"/>
<mask id="path-9-inside-5" fill="white">
<path d="M492.54 407.822H1.31445V410.385H492.54V407.822Z"/>
</mask>
<path d="M1.31445 407.822V403.822H-2.68555V407.822H1.31445ZM492.54 407.822H496.54V403.822H492.54V407.822ZM492.54 410.385V414.385H496.54V410.385H492.54ZM1.31445 410.385H-2.68555V414.385H1.31445V410.385ZM1.31445 411.822H492.54V403.822H1.31445V411.822ZM488.54 407.822V410.385H496.54V407.822H488.54ZM492.54 406.385H1.31445V414.385H492.54V406.385ZM5.31445 410.385V407.822H-2.68555V410.385H5.31445Z" fill="#A7A9AC" mask="url(#path-9-inside-5)"/>
<mask id="path-11-inside-6" fill="white">
<path d="M191.042 25.2457H1.31445V27.809H191.042V25.2457Z"/>
</mask>
<path d="M1.31445 25.2457V21.2457H-2.68555V25.2457H1.31445ZM191.042 25.2457H195.042V21.2457H191.042V25.2457ZM191.042 27.809V31.809H195.042V27.809H191.042ZM1.31445 27.809H-2.68555V31.809H1.31445V27.809ZM1.31445 29.2457H191.042V21.2457H1.31445V29.2457ZM187.042 25.2457V27.809H195.042V25.2457H187.042ZM191.042 23.809H1.31445V31.809H191.042V23.809ZM5.31445 27.809V25.2457H-2.68555V27.809H5.31445Z" fill="#A7A9AC" mask="url(#path-11-inside-6)"/>
<mask id="path-13-inside-7" fill="white">
<path d="M192.375 14.4208H189.727V41.8241H192.375V14.4208Z"/>
</mask>
<path d="M189.727 14.4208V10.4208H185.727V14.4208H189.727ZM192.375 14.4208H196.375V10.4208H192.375V14.4208ZM192.375 41.8241V45.8241H196.375V41.8241H192.375ZM189.727 41.8241H185.727V45.8241H189.727V41.8241ZM189.727 18.4208H192.375V10.4208H189.727V18.4208ZM188.375 14.4208V41.8241H196.375V14.4208H188.375ZM192.375 37.8241H189.727V45.8241H192.375V37.8241ZM193.727 41.8241V14.4208H185.727V41.8241H193.727Z" fill="#A7A9AC" mask="url(#path-13-inside-7)"/>
<mask id="path-15-inside-8" fill="white">
<path d="M492.54 25.2457H302.812V27.809H492.54V25.2457Z"/>
</mask>
<path d="M302.812 25.2457V21.2457H298.812V25.2457H302.812ZM492.54 25.2457H496.54V21.2457H492.54V25.2457ZM492.54 27.809V31.809H496.54V27.809H492.54ZM302.812 27.809H298.812V31.809H302.812V27.809ZM302.812 29.2457H492.54V21.2457H302.812V29.2457ZM488.54 25.2457V27.809H496.54V25.2457H488.54ZM492.54 23.809H302.812V31.809H492.54V23.809ZM306.812 27.809V25.2457H298.812V27.809H306.812Z" fill="#A7A9AC" mask="url(#path-15-inside-8)"/>
<mask id="path-17-inside-9" fill="white">
<path d="M457.486 3.81726H454.838V426.982H457.486V3.81726Z"/>
</mask>
<path d="M454.838 3.81726V-0.182739H450.838V3.81726H454.838ZM457.486 3.81726H461.486V-0.182739H457.486V3.81726ZM457.486 426.982V430.982H461.486V426.982H457.486ZM454.838 426.982H450.838V430.982H454.838V426.982ZM454.838 7.81726H457.486V-0.182739H454.838V7.81726ZM453.486 3.81726V426.982H461.486V3.81726H453.486ZM457.486 422.982H454.838V430.982H457.486V422.982ZM458.838 426.982V3.81726H450.838V426.982H458.838Z" fill="#A7A9AC" mask="url(#path-17-inside-9)"/>
<mask id="path-19-inside-10" fill="white">
<path d="M348.211 3.81726H345.562V426.982H348.211V3.81726Z"/>
</mask>
<path d="M345.562 3.81726V-0.182739H341.562V3.81726H345.562ZM348.211 3.81726H352.211V-0.182739H348.211V3.81726ZM348.211 426.982V430.982H352.211V426.982H348.211ZM345.562 426.982H341.562V430.982H345.562V426.982ZM345.562 7.81726H348.211V-0.182739H345.562V7.81726ZM344.211 3.81726V426.982H352.211V3.81726H344.211ZM348.211 422.982H345.562V430.982H348.211V422.982ZM349.562 426.982V3.81726H341.562V426.982H349.562Z" fill="#A7A9AC" mask="url(#path-19-inside-10)"/>
<mask id="path-21-inside-11" fill="white">
<path d="M139.395 412.635C139.4 411.621 139.82 410.65 140.562 409.935C141.305 409.22 142.31 408.818 143.358 408.818C144.405 408.818 145.41 409.22 146.153 409.935C146.895 410.65 147.315 411.621 147.32 412.635C147.323 413.141 147.222 413.641 147.024 414.109C146.826 414.576 146.534 415.001 146.166 415.359C145.798 415.718 145.36 416.002 144.878 416.196C144.396 416.39 143.88 416.489 143.358 416.489C142.836 416.489 142.319 416.39 141.837 416.196C141.355 416.002 140.917 415.718 140.549 415.359C140.181 415.001 139.889 414.576 139.691 414.109C139.493 413.641 139.392 413.141 139.395 412.635ZM139.395 387.113C139.395 386.609 139.497 386.11 139.697 385.645C139.896 385.18 140.188 384.757 140.556 384.401C140.924 384.044 141.36 383.762 141.841 383.569C142.322 383.376 142.837 383.277 143.358 383.277C143.878 383.277 144.393 383.376 144.874 383.569C145.355 383.762 145.792 384.044 146.159 384.401C146.527 384.757 146.819 385.18 147.018 385.645C147.218 386.11 147.32 386.609 147.32 387.113C147.315 388.129 146.896 389.102 146.154 389.82C145.412 390.538 144.407 390.944 143.358 390.949C142.835 390.946 142.317 390.844 141.835 390.648C141.353 390.452 140.916 390.166 140.548 389.807C140.18 389.447 139.889 389.021 139.691 388.552C139.493 388.084 139.392 387.582 139.395 387.076V387.113ZM139.395 361.554C139.395 360.536 139.812 359.561 140.556 358.841C141.299 358.122 142.307 357.718 143.358 357.718C144.408 357.718 145.416 358.122 146.159 358.841C146.903 359.561 147.32 360.536 147.32 361.554C147.32 362.571 146.903 363.547 146.159 364.266C145.416 364.985 144.408 365.389 143.358 365.389C142.837 365.389 142.322 365.29 141.841 365.097C141.36 364.905 140.924 364.622 140.556 364.266C140.188 363.91 139.896 363.487 139.697 363.022C139.497 362.556 139.395 362.057 139.395 361.554ZM139.395 335.995C139.395 335.492 139.498 334.994 139.697 334.529C139.896 334.065 140.188 333.643 140.557 333.289C140.925 332.934 141.362 332.653 141.843 332.463C142.323 332.272 142.838 332.175 143.358 332.177C143.877 332.175 144.392 332.272 144.872 332.463C145.353 332.653 145.79 332.934 146.158 333.289C146.527 333.643 146.819 334.065 147.018 334.529C147.217 334.994 147.32 335.492 147.32 335.995C147.32 337.012 146.903 337.987 146.159 338.707C145.416 339.426 144.408 339.83 143.358 339.83C142.307 339.83 141.299 339.426 140.556 338.707C139.812 337.987 139.395 337.012 139.395 335.995ZM139.395 310.454C139.395 309.436 139.812 308.461 140.556 307.742C141.299 307.022 142.307 306.618 143.358 306.618C144.408 306.618 145.416 307.022 146.159 307.742C146.903 308.461 147.32 309.436 147.32 310.454C147.315 311.47 146.896 312.442 146.154 313.161C145.412 313.879 144.407 314.285 143.358 314.29C142.308 314.285 141.303 313.879 140.561 313.161C139.819 312.442 139.4 311.47 139.395 310.454ZM139.395 284.895C139.395 283.876 139.812 282.898 140.554 282.176C141.297 281.454 142.305 281.045 143.358 281.04C144.41 281.045 145.418 281.454 146.161 282.176C146.903 282.898 147.32 283.876 147.32 284.895C147.32 285.912 146.903 286.888 146.159 287.607C145.416 288.326 144.408 288.73 143.358 288.73C142.307 288.73 141.299 288.326 140.556 287.607C139.812 286.888 139.395 285.912 139.395 284.895ZM139.395 259.354C139.395 258.85 139.497 258.351 139.697 257.886C139.896 257.421 140.188 256.998 140.556 256.642C140.924 256.285 141.36 256.003 141.841 255.81C142.322 255.617 142.837 255.518 143.358 255.518C143.878 255.518 144.393 255.617 144.874 255.81C145.355 256.003 145.792 256.285 146.159 256.642C146.527 256.998 146.819 257.421 147.018 257.886C147.218 258.351 147.32 258.85 147.32 259.354C147.318 259.855 147.213 260.351 147.013 260.813C146.812 261.276 146.52 261.695 146.152 262.048C145.784 262.4 145.348 262.68 144.868 262.869C144.389 263.059 143.875 263.155 143.358 263.153C142.84 263.155 142.326 263.059 141.847 262.869C141.368 262.68 140.931 262.4 140.563 262.048C140.195 261.695 139.903 261.276 139.702 260.813C139.502 260.351 139.397 259.855 139.395 259.354ZM139.395 233.795C139.395 232.777 139.812 231.802 140.556 231.082C141.299 230.363 142.307 229.959 143.358 229.959C144.408 229.959 145.416 230.363 146.159 231.082C146.903 231.802 147.32 232.777 147.32 233.795C147.32 234.812 146.903 235.788 146.159 236.507C145.416 237.226 144.408 237.63 143.358 237.63C142.837 237.63 142.322 237.531 141.841 237.338C141.36 237.146 140.924 236.863 140.556 236.507C140.188 236.151 139.896 235.728 139.697 235.263C139.497 234.797 139.395 234.298 139.395 233.795ZM139.395 208.235C139.395 207.733 139.498 207.235 139.697 206.77C139.896 206.306 140.188 205.884 140.557 205.53C140.925 205.175 141.362 204.894 141.843 204.703C142.323 204.513 142.838 204.416 143.358 204.418C143.877 204.416 144.392 204.513 144.872 204.703C145.353 204.894 145.79 205.175 146.158 205.53C146.527 205.884 146.819 206.306 147.018 206.77C147.217 207.235 147.32 207.733 147.32 208.235C147.32 209.253 146.903 210.228 146.159 210.948C145.416 211.667 144.408 212.071 143.358 212.071C142.834 212.071 142.316 211.971 141.832 211.776C141.349 211.581 140.91 211.295 140.542 210.935C140.174 210.575 139.882 210.147 139.686 209.678C139.489 209.208 139.39 208.705 139.395 208.199V208.235ZM139.395 182.695C139.395 181.677 139.812 180.702 140.556 179.982C141.299 179.263 142.307 178.859 143.358 178.859C144.408 178.859 145.416 179.263 146.159 179.982C146.903 180.702 147.32 181.677 147.32 182.695C147.315 183.711 146.896 184.683 146.154 185.402C145.412 186.12 144.407 186.526 143.358 186.53C142.308 186.526 141.303 186.12 140.561 185.402C139.819 184.683 139.4 183.711 139.395 182.695ZM139.395 157.136C139.395 156.118 139.812 155.143 140.556 154.423C141.299 153.704 142.307 153.3 143.358 153.3C144.408 153.3 145.416 153.704 146.159 154.423C146.903 155.143 147.32 156.118 147.32 157.136C147.32 158.153 146.903 159.128 146.159 159.848C145.416 160.567 144.408 160.971 143.358 160.971C142.837 160.971 142.322 160.872 141.841 160.679C141.36 160.487 140.924 160.204 140.556 159.848C140.188 159.492 139.896 159.069 139.697 158.603C139.497 158.138 139.395 157.639 139.395 157.136ZM139.395 131.558C139.397 131.057 139.502 130.561 139.702 130.098C139.903 129.636 140.195 129.217 140.563 128.864C140.931 128.511 141.368 128.232 141.847 128.043C142.326 127.853 142.84 127.757 143.358 127.759C143.875 127.757 144.389 127.853 144.868 128.043C145.348 128.232 145.784 128.511 146.152 128.864C146.52 129.217 146.812 129.636 147.013 130.098C147.213 130.561 147.318 131.057 147.32 131.558C147.32 132.577 146.903 133.554 146.161 134.277C145.418 134.999 144.41 135.407 143.358 135.412C142.305 135.407 141.297 134.999 140.554 134.277C139.812 133.554 139.395 132.577 139.395 131.558ZM139.395 106.036C139.395 105.018 139.812 104.043 140.556 103.323C141.299 102.604 142.307 102.2 143.358 102.2C144.408 102.2 145.416 102.604 146.159 103.323C146.903 104.043 147.32 105.018 147.32 106.036C147.315 107.051 146.896 108.024 146.154 108.743C145.412 109.461 144.407 109.866 143.358 109.871C142.308 109.866 141.303 109.461 140.561 108.743C139.819 108.024 139.4 107.051 139.395 106.036ZM139.395 80.4764C139.395 79.4591 139.812 78.4835 140.556 77.7641C141.299 77.0448 142.307 76.6407 143.358 76.6407C144.408 76.6407 145.416 77.0448 146.159 77.7641C146.903 78.4835 147.32 79.4591 147.32 80.4764C147.32 81.4937 146.903 82.4693 146.159 83.1887C145.416 83.908 144.408 84.3121 143.358 84.3121C142.837 84.3121 142.322 84.2129 141.841 84.0201C141.36 83.8274 140.924 83.5448 140.556 83.1887C140.188 82.8325 139.896 82.4096 139.697 81.9443C139.497 81.4789 139.395 80.9801 139.395 80.4764ZM139.395 54.9356C139.395 53.9183 139.812 52.9427 140.556 52.2234C141.299 51.504 142.307 51.0999 143.358 51.0999C144.408 51.0999 145.416 51.504 146.159 52.2234C146.903 52.9427 147.32 53.9183 147.32 54.9356C147.328 55.444 147.231 55.9487 147.035 56.4205C146.839 56.8923 146.549 57.3217 146.18 57.6838C145.811 58.0458 145.372 58.3333 144.887 58.5295C144.403 58.7257 143.883 58.8267 143.358 58.8267C142.832 58.8267 142.312 58.7257 141.828 58.5295C141.343 58.3333 140.904 58.0458 140.535 57.6838C140.166 57.3217 139.876 56.8923 139.68 56.4205C139.484 55.9487 139.387 55.444 139.395 54.9356ZM139.395 29.3765C139.42 28.3752 139.848 27.4231 140.589 26.7236C141.329 26.0241 142.323 25.6326 143.358 25.6329C144.383 25.6322 145.368 26.016 146.107 26.7037C146.846 27.3915 147.281 28.3296 147.32 29.3211C147.32 30.3384 146.903 31.3141 146.159 32.0334C145.416 32.7527 144.408 33.1569 143.358 33.1569C142.307 33.1569 141.299 32.7527 140.556 32.0334C139.812 31.3141 139.395 30.3384 139.395 29.3211V29.3765ZM139.395 3.81726C139.395 3.31442 139.498 2.81652 139.697 2.35218C139.896 1.88784 140.188 1.46621 140.557 1.1115C140.925 0.756788 141.362 0.475995 141.843 0.285247C142.323 0.0944981 142.838 -0.00244571 143.358 -1.64875e-05C143.877 -0.00244571 144.392 0.0944981 144.872 0.285247C145.353 0.475995 145.79 0.756788 146.158 1.1115C146.527 1.46621 146.819 1.88784 147.018 2.35218C147.217 2.81652 147.32 3.31442 147.32 3.81726C147.32 4.83456 146.903 5.81019 146.159 6.52953C145.416 7.24887 144.408 7.65299 143.358 7.65299C142.837 7.65299 142.322 7.55377 141.841 7.36101C141.36 7.16825 140.924 6.88571 140.556 6.52953C140.188 6.17335 139.896 5.75051 139.697 5.28513C139.497 4.81976 139.395 4.32098 139.395 3.81726Z"/>
</mask>
<path d="M139.395 412.635C139.4 411.621 139.82 410.65 140.562 409.935C141.305 409.22 142.31 408.818 143.358 408.818C144.405 408.818 145.41 409.22 146.153 409.935C146.895 410.65 147.315 411.621 147.32 412.635C147.323 413.141 147.222 413.641 147.024 414.109C146.826 414.576 146.534 415.001 146.166 415.359C145.798 415.718 145.36 416.002 144.878 416.196C144.396 416.39 143.88 416.489 143.358 416.489C142.836 416.489 142.319 416.39 141.837 416.196C141.355 416.002 140.917 415.718 140.549 415.359C140.181 415.001 139.889 414.576 139.691 414.109C139.493 413.641 139.392 413.141 139.395 412.635ZM139.395 387.113C139.395 386.609 139.497 386.11 139.697 385.645C139.896 385.18 140.188 384.757 140.556 384.401C140.924 384.044 141.36 383.762 141.841 383.569C142.322 383.376 142.837 383.277 143.358 383.277C143.878 383.277 144.393 383.376 144.874 383.569C145.355 383.762 145.792 384.044 146.159 384.401C146.527 384.757 146.819 385.18 147.018 385.645C147.218 386.11 147.32 386.609 147.32 387.113C147.315 388.129 146.896 389.102 146.154 389.82C145.412 390.538 144.407 390.944 143.358 390.949C142.835 390.946 142.317 390.844 141.835 390.648C141.353 390.452 140.916 390.166 140.548 389.807C140.18 389.447 139.889 389.021 139.691 388.552C139.493 388.084 139.392 387.582 139.395 387.076V387.113ZM139.395 361.554C139.395 360.536 139.812 359.561 140.556 358.841C141.299 358.122 142.307 357.718 143.358 357.718C144.408 357.718 145.416 358.122 146.159 358.841C146.903 359.561 147.32 360.536 147.32 361.554C147.32 362.571 146.903 363.547 146.159 364.266C145.416 364.985 144.408 365.389 143.358 365.389C142.837 365.389 142.322 365.29 141.841 365.097C141.36 364.905 140.924 364.622 140.556 364.266C140.188 363.91 139.896 363.487 139.697 363.022C139.497 362.556 139.395 362.057 139.395 361.554ZM139.395 335.995C139.395 335.492 139.498 334.994 139.697 334.529C139.896 334.065 140.188 333.643 140.557 333.289C140.925 332.934 141.362 332.653 141.843 332.463C142.323 332.272 142.838 332.175 143.358 332.177C143.877 332.175 144.392 332.272 144.872 332.463C145.353 332.653 145.79 332.934 146.158 333.289C146.527 333.643 146.819 334.065 147.018 334.529C147.217 334.994 147.32 335.492 147.32 335.995C147.32 337.012 146.903 337.987 146.159 338.707C145.416 339.426 144.408 339.83 143.358 339.83C142.307 339.83 141.299 339.426 140.556 338.707C139.812 337.987 139.395 337.012 139.395 335.995ZM139.395 310.454C139.395 309.436 139.812 308.461 140.556 307.742C141.299 307.022 142.307 306.618 143.358 306.618C144.408 306.618 145.416 307.022 146.159 307.742C146.903 308.461 147.32 309.436 147.32 310.454C147.315 311.47 146.896 312.442 146.154 313.161C145.412 313.879 144.407 314.285 143.358 314.29C142.308 314.285 141.303 313.879 140.561 313.161C139.819 312.442 139.4 311.47 139.395 310.454ZM139.395 284.895C139.395 283.876 139.812 282.898 140.554 282.176C141.297 281.454 142.305 281.045 143.358 281.04C144.41 281.045 145.418 281.454 146.161 282.176C146.903 282.898 147.32 283.876 147.32 284.895C147.32 285.912 146.903 286.888 146.159 287.607C145.416 288.326 144.408 288.73 143.358 288.73C142.307 288.73 141.299 288.326 140.556 287.607C139.812 286.888 139.395 285.912 139.395 284.895ZM139.395 259.354C139.395 258.85 139.497 258.351 139.697 257.886C139.896 257.421 140.188 256.998 140.556 256.642C140.924 256.285 141.36 256.003 141.841 255.81C142.322 255.617 142.837 255.518 143.358 255.518C143.878 255.518 144.393 255.617 144.874 255.81C145.355 256.003 145.792 256.285 146.159 256.642C146.527 256.998 146.819 257.421 147.018 257.886C147.218 258.351 147.32 258.85 147.32 259.354C147.318 259.855 147.213 260.351 147.013 260.813C146.812 261.276 146.52 261.695 146.152 262.048C145.784 262.4 145.348 262.68 144.868 262.869C144.389 263.059 143.875 263.155 143.358 263.153C142.84 263.155 142.326 263.059 141.847 262.869C141.368 262.68 140.931 262.4 140.563 262.048C140.195 261.695 139.903 261.276 139.702 260.813C139.502 260.351 139.397 259.855 139.395 259.354ZM139.395 233.795C139.395 232.777 139.812 231.802 140.556 231.082C141.299 230.363 142.307 229.959 143.358 229.959C144.408 229.959 145.416 230.363 146.159 231.082C146.903 231.802 147.32 232.777 147.32 233.795C147.32 234.812 146.903 235.788 146.159 236.507C145.416 237.226 144.408 237.63 143.358 237.63C142.837 237.63 142.322 237.531 141.841 237.338C141.36 237.146 140.924 236.863 140.556 236.507C140.188 236.151 139.896 235.728 139.697 235.263C139.497 234.797 139.395 234.298 139.395 233.795ZM139.395 208.235C139.395 207.733 139.498 207.235 139.697 206.77C139.896 206.306 140.188 205.884 140.557 205.53C140.925 205.175 141.362 204.894 141.843 204.703C142.323 204.513 142.838 204.416 143.358 204.418C143.877 204.416 144.392 204.513 144.872 204.703C145.353 204.894 145.79 205.175 146.158 205.53C146.527 205.884 146.819 206.306 147.018 206.77C147.217 207.235 147.32 207.733 147.32 208.235C147.32 209.253 146.903 210.228 146.159 210.948C145.416 211.667 144.408 212.071 143.358 212.071C142.834 212.071 142.316 211.971 141.832 211.776C141.349 211.581 140.91 211.295 140.542 210.935C140.174 210.575 139.882 210.147 139.686 209.678C139.489 209.208 139.39 208.705 139.395 208.199V208.235ZM139.395 182.695C139.395 181.677 139.812 180.702 140.556 179.982C141.299 179.263 142.307 178.859 143.358 178.859C144.408 178.859 145.416 179.263 146.159 179.982C146.903 180.702 147.32 181.677 147.32 182.695C147.315 183.711 146.896 184.683 146.154 185.402C145.412 186.12 144.407 186.526 143.358 186.53C142.308 186.526 141.303 186.12 140.561 185.402C139.819 184.683 139.4 183.711 139.395 182.695ZM139.395 157.136C139.395 156.118 139.812 155.143 140.556 154.423C141.299 153.704 142.307 153.3 143.358 153.3C144.408 153.3 145.416 153.704 146.159 154.423C146.903 155.143 147.32 156.118 147.32 157.136C147.32 158.153 146.903 159.128 146.159 159.848C145.416 160.567 144.408 160.971 143.358 160.971C142.837 160.971 142.322 160.872 141.841 160.679C141.36 160.487 140.924 160.204 140.556 159.848C140.188 159.492 139.896 159.069 139.697 158.603C139.497 158.138 139.395 157.639 139.395 157.136ZM139.395 131.558C139.397 131.057 139.502 130.561 139.702 130.098C139.903 129.636 140.195 129.217 140.563 128.864C140.931 128.511 141.368 128.232 141.847 128.043C142.326 127.853 142.84 127.757 143.358 127.759C143.875 127.757 144.389 127.853 144.868 128.043C145.348 128.232 145.784 128.511 146.152 128.864C146.52 129.217 146.812 129.636 147.013 130.098C147.213 130.561 147.318 131.057 147.32 131.558C147.32 132.577 146.903 133.554 146.161 134.277C145.418 134.999 144.41 135.407 143.358 135.412C142.305 135.407 141.297 134.999 140.554 134.277C139.812 133.554 139.395 132.577 139.395 131.558ZM139.395 106.036C139.395 105.018 139.812 104.043 140.556 103.323C141.299 102.604 142.307 102.2 143.358 102.2C144.408 102.2 145.416 102.604 146.159 103.323C146.903 104.043 147.32 105.018 147.32 106.036C147.315 107.051 146.896 108.024 146.154 108.743C145.412 109.461 144.407 109.866 143.358 109.871C142.308 109.866 141.303 109.461 140.561 108.743C139.819 108.024 139.4 107.051 139.395 106.036ZM139.395 80.4764C139.395 79.4591 139.812 78.4835 140.556 77.7641C141.299 77.0448 142.307 76.6407 143.358 76.6407C144.408 76.6407 145.416 77.0448 146.159 77.7641C146.903 78.4835 147.32 79.4591 147.32 80.4764C147.32 81.4937 146.903 82.4693 146.159 83.1887C145.416 83.908 144.408 84.3121 143.358 84.3121C142.837 84.3121 142.322 84.2129 141.841 84.0201C141.36 83.8274 140.924 83.5448 140.556 83.1887C140.188 82.8325 139.896 82.4096 139.697 81.9443C139.497 81.4789 139.395 80.9801 139.395 80.4764ZM139.395 54.9356C139.395 53.9183 139.812 52.9427 140.556 52.2234C141.299 51.504 142.307 51.0999 143.358 51.0999C144.408 51.0999 145.416 51.504 146.159 52.2234C146.903 52.9427 147.32 53.9183 147.32 54.9356C147.328 55.444 147.231 55.9487 147.035 56.4205C146.839 56.8923 146.549 57.3217 146.18 57.6838C145.811 58.0458 145.372 58.3333 144.887 58.5295C144.403 58.7257 143.883 58.8267 143.358 58.8267C142.832 58.8267 142.312 58.7257 141.828 58.5295C141.343 58.3333 140.904 58.0458 140.535 57.6838C140.166 57.3217 139.876 56.8923 139.68 56.4205C139.484 55.9487 139.387 55.444 139.395 54.9356ZM139.395 29.3765C139.42 28.3752 139.848 27.4231 140.589 26.7236C141.329 26.0241 142.323 25.6326 143.358 25.6329C144.383 25.6322 145.368 26.016 146.107 26.7037C146.846 27.3915 147.281 28.3296 147.32 29.3211C147.32 30.3384 146.903 31.3141 146.159 32.0334C145.416 32.7527 144.408 33.1569 143.358 33.1569C142.307 33.1569 141.299 32.7527 140.556 32.0334C139.812 31.3141 139.395 30.3384 139.395 29.3211V29.3765ZM139.395 3.81726C139.395 3.31442 139.498 2.81652 139.697 2.35218C139.896 1.88784 140.188 1.46621 140.557 1.1115C140.925 0.756788 141.362 0.475995 141.843 0.285247C142.323 0.0944981 142.838 -0.00244571 143.358 -1.64875e-05C143.877 -0.00244571 144.392 0.0944981 144.872 0.285247C145.353 0.475995 145.79 0.756788 146.158 1.1115C146.527 1.46621 146.819 1.88784 147.018 2.35218C147.217 2.81652 147.32 3.31442 147.32 3.81726C147.32 4.83456 146.903 5.81019 146.159 6.52953C145.416 7.24887 144.408 7.65299 143.358 7.65299C142.837 7.65299 142.322 7.55377 141.841 7.36101C141.36 7.16825 140.924 6.88571 140.556 6.52953C140.188 6.17335 139.896 5.75051 139.697 5.28513C139.497 4.81976 139.395 4.32098 139.395 3.81726Z" stroke="#A7A9AC" stroke-width="8" mask="url(#path-21-inside-11)"/>
<mask id="path-22-inside-12" fill="white">
<path d="M482.557 217.272H11.4492V219.964H482.557V217.272Z"/>
</mask>
<path d="M11.4492 217.272V214.272H8.44922V217.272H11.4492ZM482.557 217.272H485.557V214.272H482.557V217.272ZM482.557 219.964V222.964H485.557V219.964H482.557ZM11.4492 219.964H8.44922V222.964H11.4492V219.964ZM11.4492 220.272H482.557V214.272H11.4492V220.272ZM479.557 217.272V219.964H485.557V217.272H479.557ZM482.557 216.964H11.4492V222.964H482.557V216.964ZM14.4492 219.964V217.272H8.44922V219.964H14.4492Z" fill="#939598" mask="url(#path-22-inside-12)"/>
<mask id="path-24-inside-13" fill="white">
<path d="M509 393.807H506.352V421.21H509V393.807Z"/>
</mask>
<path d="M506.352 393.807V390.807H503.352V393.807H506.352ZM509 393.807H512V390.807H509V393.807ZM509 421.21V424.21H512V421.21H509ZM506.352 421.21H503.352V424.21H506.352V421.21ZM506.352 396.807H509V390.807H506.352V396.807ZM506 393.807V421.21H512V393.807H506ZM509 418.21H506.352V424.21H509V418.21ZM509.352 421.21V393.807H503.352V421.21H509.352Z" fill="#939598" mask="url(#path-24-inside-13)"/>
<mask id="path-26-inside-14" fill="white">
<path d="M2.64807 14.4208H0V41.8241H2.64807V14.4208Z"/>
</mask>
<path d="M0 14.4208V11.4208H-3V14.4208H0ZM2.64807 14.4208H5.64807V11.4208H2.64807V14.4208ZM2.64807 41.8241V44.8241H5.64807V41.8241H2.64807ZM0 41.8241H-3V44.8241H0V41.8241ZM0 17.4208H2.64807V11.4208H0V17.4208ZM-0.351935 14.4208V41.8241H5.64807V14.4208H-0.351935ZM2.64807 38.8241H0V44.8241H2.64807V38.8241ZM3 41.8241V14.4208H-3V41.8241H3Z" fill="#939598" mask="url(#path-26-inside-14)"/>
<mask id="path-28-inside-15" fill="white">
<path d="M304.146 14.4208H301.498V41.8241H304.146V14.4208Z"/>
</mask>
<path d="M301.498 14.4208V11.4208H298.498V14.4208H301.498ZM304.146 14.4208H307.146V11.4208H304.146V14.4208ZM304.146 41.8241V44.8241H307.146V41.8241H304.146ZM301.498 41.8241H298.498V44.8241H301.498V41.8241ZM301.498 17.4208H304.146V11.4208H301.498V17.4208ZM301.146 14.4208V41.8241H307.146V14.4208H301.146ZM304.146 38.8241H301.498V44.8241H304.146V38.8241ZM304.498 41.8241V14.4208H298.498V41.8241H304.498Z" fill="#939598" mask="url(#path-28-inside-15)"/>
<mask id="path-30-inside-16" fill="white">
<path d="M509 11.2121H506.352V38.6154H509V11.2121Z"/>
</mask>
<path d="M506.352 11.2121V8.2121H503.352V11.2121H506.352ZM509 11.2121H512V8.2121H509V11.2121ZM509 38.6154V41.6154H512V38.6154H509ZM506.352 38.6154H503.352V41.6154H506.352V38.6154ZM506.352 14.2121H509V8.2121H506.352V14.2121ZM506 11.2121V38.6154H512V11.2121H506ZM509 35.6154H506.352V41.6154H509V35.6154ZM509.352 38.6154V11.2121H503.352V38.6154H509.352Z" fill="#939598" mask="url(#path-30-inside-16)"/>
<mask id="path-32-inside-17" fill="white">
<path d="M39.1686 3.81726H36.5205V426.982H39.1686V3.81726Z"/>
</mask>
<path d="M36.5205 3.81726V0.817261H33.5205V3.81726H36.5205ZM39.1686 3.81726H42.1686V0.817261H39.1686V3.81726ZM39.1686 426.982V429.982H42.1686V426.982H39.1686ZM36.5205 426.982H33.5205V429.982H36.5205V426.982ZM36.5205 6.81726H39.1686V0.817261H36.5205V6.81726ZM36.1686 3.81726V426.982H42.1686V3.81726H36.1686ZM39.1686 423.982H36.5205V429.982H39.1686V423.982ZM39.5205 426.982V3.81726H33.5205V426.982H39.5205Z" fill="#939598" mask="url(#path-32-inside-17)"/>
<mask id="path-34-inside-18" fill="white">
<path d="M2.64807 396.997H0V424.401H2.64807V396.997Z"/>
</mask>
<path d="M0 396.997V393.997H-3V396.997H0ZM2.64807 396.997H5.64807V393.997H2.64807V396.997ZM2.64807 424.401V427.401H5.64807V424.401H2.64807ZM0 424.401H-3V427.401H0V424.401ZM0 399.997H2.64807V393.997H0V399.997ZM-0.351935 396.997V424.401H5.64807V396.997H-0.351935ZM2.64807 421.401H0V427.401H2.64807V421.401ZM3 424.401V396.997H-3V424.401H3Z" fill="#939598" mask="url(#path-34-inside-18)"/>
<mask id="path-36-inside-19" fill="white">
<path fill-rule="evenodd" clip-rule="evenodd" d="M412.482 108.083C413.26 106.943 412.966 105.387 411.826 104.609C410.685 103.831 409.13 104.125 408.352 105.266L207.247 400.148L197.388 393.424L195.227 422.21L221.237 409.689L211.378 402.965L412.482 108.083Z"/>
</mask>
<path d="M411.826 104.609L405.064 114.523L405.064 114.523L411.826 104.609ZM412.482 108.083L422.396 114.844L422.396 114.844L412.482 108.083ZM408.352 105.266L398.438 98.5049L398.438 98.5049L408.352 105.266ZM207.247 400.148L200.486 410.062C203.115 411.855 206.349 412.53 209.476 411.939C212.603 411.348 215.368 409.538 217.161 406.909L207.247 400.148ZM197.388 393.424L204.149 383.51C200.607 381.094 196.045 380.752 192.183 382.612C188.32 384.471 185.742 388.25 185.421 392.525L197.388 393.424ZM195.227 422.21L183.26 421.312C182.939 425.587 184.923 429.709 188.465 432.124C192.007 434.54 196.569 434.882 200.432 433.023L195.227 422.21ZM221.237 409.689L226.442 420.501C230.305 418.641 232.882 414.862 233.203 410.587C233.524 406.312 231.54 402.19 227.998 399.775L221.237 409.689ZM211.378 402.965L201.464 396.204C197.73 401.679 199.141 409.145 204.617 412.879L211.378 402.965ZM405.064 114.523C400.73 111.567 399.612 105.657 402.568 101.322L422.396 114.844C426.908 108.228 425.203 99.2073 418.587 94.6953L405.064 114.523ZM418.266 112.027C415.309 116.362 409.399 117.479 405.064 114.523L418.587 94.6953C411.971 90.1833 402.95 91.8889 398.438 98.5049L418.266 112.027ZM217.161 406.909L418.266 112.027L398.438 98.5049L197.333 393.387L217.161 406.909ZM190.627 403.338L200.486 410.062L214.008 390.234L204.149 383.51L190.627 403.338ZM207.193 423.109L209.354 394.322L185.421 392.525L183.26 421.312L207.193 423.109ZM216.032 398.876L190.021 411.398L200.432 433.023L226.442 420.501L216.032 398.876ZM204.617 412.879L214.476 419.603L227.998 399.775L218.139 393.051L204.617 412.879ZM402.568 101.322L201.464 396.204L221.292 409.726L422.396 114.844L402.568 101.322Z" fill="#BCBEC0" mask="url(#path-36-inside-19)"/>
</g>
<defs>
<clipPath id="clip0">
<rect width="509" height="436" fill="white"/>
</clipPath>
</defs>
</svg>
